<svg width="773" height="159" viewBox="0 0 773 159" fill="none" xmlns="http://www.w3.org/2000/svg">
<path fill-rule="evenodd" clip-rule="evenodd" d="M428.82 1.67748C424.979 3.57048 420.397 10.3415 418.59 16.7965C417.656 20.1325 417.601 24.1465 418.364 33.3395C419.088 42.0575 419.063 45.6885 418.275 46.2275C417.496 46.7605 417.53 47.2045 418.394 47.7645C419.062 48.1975 420.131 51.0105 420.77 54.0145C422.415 61.7535 427.702 71.5605 433.683 77.9675C440.573 85.3475 444.035 90.7645 447.894 100.204C451.977 110.191 452.735 108.555 449.188 97.4145C446.998 90.5375 446.627 87.9765 447.202 83.7165C448.127 76.8625 448.333 76.5305 456.7 68.4145C466.305 59.0965 468.927 54.4675 469.649 45.5505L470.222 38.4775L473.486 43.4775C479.367 52.4885 481.88 65.1205 479.766 75.0435C478.272 82.0595 472.822 90.2335 466.942 94.2795C464.386 96.0385 460.593 98.9815 458.513 100.819L454.732 104.162L456.199 99.2235C457.005 96.5065 458.964 91.4025 460.551 87.8805C463.225 81.9475 466.186 71.1505 465.364 70.3295C465.168 70.1335 464.234 72.7585 463.287 76.1625C462.341 79.5665 459.962 85.7555 458.001 89.9145C453.904 98.6075 452.564 109.492 454.597 117.567C455.242 120.126 455.608 122.381 455.412 122.577C455.216 122.774 453.598 119.371 451.817 115.015C449.016 108.163 446.768 105.032 435.145 91.7865C420.44 75.0305 419.329 72.9545 418.19 60.1235C417.831 56.0785 417.131 51.8035 416.633 50.6235C415.482 47.8905 416.482 65.4435 417.679 68.9775C418.145 70.3525 418.729 73.6085 418.978 76.2125C419.493 81.6065 422.744 88.7505 428.92 98.0575C431.262 101.588 433.972 106.052 434.942 107.977C436.687 111.441 436.7 111.446 436.129 108.477C435.812 106.827 433.286 102.007 430.515 97.7665C425.941 90.7645 420.023 78.3005 420.87 77.4535C421.059 77.2645 423.906 80.5605 427.196 84.7775C430.487 88.9955 436.329 95.8395 440.18 99.9875C445.542 105.763 447.875 109.255 450.149 114.903C451.782 118.959 454.369 124.251 455.899 126.662C457.428 129.073 458.679 131.339 458.679 131.697C458.679 132.055 459.656 133.388 460.85 134.659C462.043 135.929 462.749 137.24 462.418 137.571C462.088 137.902 457.398 136.163 451.998 133.706C446.597 131.25 439.704 128.442 436.679 127.467C430.126 125.355 424.538 120.017 421.061 112.551C419.762 109.76 418.694 108.054 418.689 108.759C418.671 111.149 421.637 117.136 424.848 121.191C427.952 125.109 427.974 125.207 425.613 124.491C420.056 122.809 416.767 120.619 410.92 114.71L404.753 108.477L403.847 100.477C402.948 92.5435 402.94 92.5255 402.81 98.2825L402.679 104.088L397.672 99.7825C393.872 96.5145 391.295 92.8515 386.975 84.5775C382.706 76.4015 380.343 73.0275 377.519 71.0775C370.399 66.1595 374.049 66.3815 385.844 71.5825C394.844 75.5515 396.416 76.7065 400.691 82.4935C403.026 85.6545 406.754 88.9825 410.338 91.1075C414.484 93.5645 417.355 96.2915 420.23 100.501C423.087 104.683 427.948 109.313 436.712 116.201C450.244 126.836 457.679 132.331 457.679 131.695C457.679 131.472 454.012 128.195 449.529 124.412C445.047 120.63 440.884 117.058 440.279 116.475C439.674 115.892 436.354 113.255 432.902 110.617C429.45 107.978 424.892 103.492 422.775 100.648C418.17 94.4645 415.68 92.1445 409.572 88.3435C407.039 86.7675 402.968 83.0105 400.527 79.9955C397.05 75.7025 394.363 73.6715 388.133 70.6295C378.038 65.7005 373.661 64.9955 370.818 67.8385C368.861 69.7955 368.752 70.7745 369.141 82.9335C369.398 90.9625 369.175 96.1705 368.559 96.5515C367.206 97.3875 368.329 102.01 371.72 109.569C374.222 115.145 377.072 118.805 389.2 132.017C391.584 134.614 396.677 137.449 408.322 142.663C417.051 146.571 426.204 150.311 428.661 150.972C437.327 153.306 449.45 149.603 455.09 142.901C459.063 138.179 457.418 138.156 452.076 142.858C447.283 147.078 439.987 149.986 434.247 149.966C429.257 149.949 416.695 145.628 417.959 144.364C418.206 144.116 422.761 142.861 428.081 141.575C437.12 139.39 440.888 137.968 437.596 137.984C435.283 137.995 419.697 141.897 417.705 142.963C416.277 143.727 413.275 142.73 404.272 138.5C397.896 135.504 392.679 132.606 392.679 132.06C392.679 131.515 395.492 130.901 398.929 130.696C404.437 130.368 404.235 130.321 397.229 130.303L389.278 130.283L385.729 125.972L382.179 121.66L398.185 122.25C413.601 122.819 414.736 123.01 428.997 127.437C442.123 131.513 448.494 133.994 467.008 142.242C472.54 144.706 476.352 148.651 479.081 154.736C480.127 157.069 481.589 158.977 482.331 158.977C484.155 158.977 484.106 158.765 480.72 152.059C479.093 148.835 476.331 145.135 474.583 143.837C468.831 139.567 463.679 133.927 463.679 131.901C463.679 130.704 467.08 126.667 472.206 121.778C482.313 112.141 488.31 103.621 489.21 97.6215C490.187 91.1015 486.964 68.1865 484.603 64.8705C483.539 63.3765 481.721 59.0765 480.563 55.3155C479.405 51.5545 477.77 47.1435 476.931 45.5135C474.584 40.9515 465.887 29.9315 461.12 25.4775C458.765 23.2775 456.529 20.2405 456.15 18.7275C455.509 16.1655 453.679 14.8215 453.679 16.9125C453.679 19.8975 456.529 24.0435 462.357 29.5375L468.956 35.7585L468.474 43.2755C468.117 48.8365 467.365 51.8295 465.585 54.7785C462.244 60.3135 447.679 75.5445 447.679 73.5035C447.679 69.8445 450.151 62.0145 453.808 54.0895C455.937 49.4755 457.669 45.4255 457.656 45.0895C457.618 44.0505 450.585 57.2705 449.203 60.9775L447.9 64.4775L446.738 61.5265C446.098 59.9035 444.849 55.9635 443.962 52.7705L442.348 46.9665L445.385 42.7215C453.9 30.8215 453.908 30.8035 453.361 25.3405C452.656 18.2955 450.451 14.5145 445.282 11.4845C442.714 9.98048 440.379 7.66648 439.649 5.90648C438.413 2.92048 435.179 -0.0435161 433.206 0.000483887C432.641 0.0124839 430.668 0.767484 428.82 1.67748ZM437.504 6.32948C438.87 9.23548 440.57 11.1035 442.619 11.9525C447.034 13.7815 451.643 19.4215 451.862 23.2625C452.216 29.4795 451.803 30.7245 446.897 38.2405L441.949 45.8205L440.814 42.0335C440.19 39.9495 439.593 34.0225 439.488 28.8615L439.296 19.4775L438.738 28.9505L438.179 38.4235L434.921 34.4635C433.129 32.2845 430.936 28.4715 430.047 25.9895C429.158 23.5085 427.304 19.1475 425.928 16.3005C422.88 9.99449 423.418 6.71648 427.956 3.95048C433.08 0.825483 435.161 1.34448 437.504 6.32948ZM426.111 21.5245C428.228 26.8235 431.434 32.6235 433.849 35.5245C437.975 40.4825 440.861 46.0035 442.096 51.3015L442.754 54.1255L438.036 50.8015C426.86 42.9285 424.157 41.1705 423.787 41.5375C423.198 42.1245 427.309 45.3585 435.88 51.0505C446.114 57.8475 447.138 60.5715 445.984 77.9265L445.179 90.0285L440.911 84.5555C437.199 79.7945 436.518 78.1315 435.68 71.7795C435.151 67.7635 434.261 63.1275 433.702 61.4775L432.687 58.4775L433.169 61.4775C434.672 70.8325 434.951 77.2635 433.822 76.5665C431.659 75.2295 423.844 60.8345 422.726 56.1285C419.587 42.9105 418.743 16.9195 421.318 12.7525C422.102 11.4835 422.084 11.4495 426.111 21.5245ZM484.283 66.1455C485.025 67.3455 486.276 77.6125 487.329 91.1225C487.85 97.8225 487.639 99.3395 485.617 103.387C483.513 107.601 465.083 127.715 464.167 126.798C463.952 126.583 464.466 123.068 465.311 118.988C466.823 111.681 469.679 104.713 471.665 103.486C472.223 103.141 472.679 102.324 472.679 101.671C472.679 101.018 471.123 102.672 469.221 105.347C466.775 108.787 465.3 112.443 464.178 117.844C463.306 122.042 462.257 126.827 461.847 128.477L461.102 131.477L458.669 126.477C455.922 120.833 454.846 110.193 456.57 105.723C457.155 104.208 459.755 101.508 462.348 99.7235C475.789 90.4715 481.012 82.3225 481.893 69.2285C482.18 64.9595 482.943 63.9765 484.283 66.1455ZM376.84 71.9585C379.107 73.8265 382.223 78.4015 385.186 84.2085C388.408 90.5245 391.85 95.4595 395.991 99.7005C399.333 103.122 401.836 106.154 401.553 106.437C400.523 107.466 380.113 102.935 377.679 101.136C376.304 100.12 374.174 97.5315 372.945 95.3835C371.001 91.9835 370.71 90.0185 370.695 80.2275C370.677 67.5625 370.992 67.1385 376.84 71.9585ZM381.039 104.461C382.766 105.17 387.554 106.305 391.679 106.981C400.749 108.47 401.753 108.98 409.488 116.028L415.58 121.579L400.379 121.158C379.871 120.59 379.209 120.328 374.439 110.878C372.329 106.699 370.321 101.524 369.977 99.3785L369.351 95.4775L373.625 99.3245C375.976 101.44 379.313 103.752 381.039 104.461Z" fill="white"/>
<path d="M1.755 94.135C1.545 94.135 1.335 94.09 1.125 94C0.945 93.88 0.855 93.715 0.855 93.505C0.855 93.025 1.17 92.71 1.8 92.56C2.85 92.32 3.585 92.02 4.005 91.66C4.455 91.27 4.68 90.595 4.68 89.635V69.205C4.68 68.245 4.485 67.57 4.095 67.18C3.705 66.76 2.97 66.415 1.89 66.145C1.26 65.995 0.945 65.68 0.945 65.2C0.945 64.99 1.035 64.825 1.215 64.705C1.425 64.585 1.635 64.525 1.845 64.525C2.535 64.525 3.24 64.54 3.96 64.57C4.68 64.6 5.385 64.645 6.075 64.705C6.765 64.735 7.41 64.75 8.01 64.75C9.75 64.75 11.415 64.75 13.005 64.75C14.625 64.75 16.26 64.75 17.91 64.75C19.5 64.75 21.075 64.75 22.635 64.75C24.225 64.75 25.86 64.75 27.54 64.75C28.14 64.75 28.785 64.735 29.475 64.705C30.165 64.645 30.87 64.6 31.59 64.57C32.31 64.54 33.015 64.525 33.705 64.525C33.945 64.525 34.155 64.585 34.335 64.705C34.515 64.825 34.605 64.99 34.605 65.2C34.605 65.68 34.29 65.995 33.66 66.145C32.58 66.415 31.845 66.76 31.455 67.18C31.065 67.57 30.87 68.245 30.87 69.205V89.635C30.87 90.595 31.08 91.27 31.5 91.66C31.95 92.02 32.685 92.32 33.705 92.56C34.365 92.71 34.695 93.025 34.695 93.505C34.695 93.715 34.59 93.88 34.38 94C34.2 94.09 34.005 94.135 33.795 94.135C33.165 94.135 32.475 94.105 31.725 94.045C31.005 94.015 30.27 93.985 29.52 93.955C28.8 93.925 28.14 93.91 27.54 93.91C26.94 93.91 26.235 93.925 25.425 93.955C24.615 93.985 23.805 94.015 22.995 94.045C22.185 94.105 21.45 94.135 20.79 94.135C20.52 94.135 20.31 94.075 20.16 93.955C20.01 93.835 19.935 93.67 19.935 93.46C19.935 93.19 20.01 92.995 20.16 92.875C20.34 92.755 20.595 92.65 20.925 92.56C22.095 92.26 22.875 91.9 23.265 91.48C23.685 91.06 23.91 90.43 23.94 89.59C24.06 86.02 24.135 82.405 24.165 78.745C24.195 75.085 24.12 71.47 23.94 67.9C23.94 67.69 23.895 67.54 23.805 67.45C23.715 67.33 23.565 67.255 23.355 67.225C22.695 67.165 22.05 67.12 21.42 67.09C20.82 67.06 20.22 67.045 19.62 67.045C19.02 67.015 18.405 67 17.775 67C16.875 67 15.96 67.03 15.03 67.09C14.13 67.12 13.2 67.165 12.24 67.225C11.85 67.255 11.64 67.495 11.61 67.945C11.28 71.455 11.145 75.055 11.205 78.745C11.265 82.405 11.4 86.02 11.61 89.59C11.64 90.43 11.85 91.06 12.24 91.48C12.66 91.9 13.455 92.26 14.625 92.56C14.925 92.65 15.165 92.755 15.345 92.875C15.525 92.995 15.615 93.19 15.615 93.46C15.615 93.67 15.54 93.835 15.39 93.955C15.24 94.075 15.03 94.135 14.76 94.135C14.1 94.135 13.365 94.105 12.555 94.045C11.745 94.015 10.95 93.985 10.17 93.955C9.42 93.925 8.73 93.91 8.1 93.91C7.47 93.91 6.78 93.925 6.03 93.955C5.28 93.985 4.53 94.015 3.78 94.045C3.03 94.105 2.355 94.135 1.755 94.135ZM37.2168 94.135C36.9768 94.135 36.7668 94.09 36.5868 94C36.4068 93.88 36.3168 93.715 36.3168 93.505C36.3168 93.025 36.6318 92.71 37.2618 92.56C38.4018 92.32 39.1818 92.02 39.6018 91.66C40.0518 91.27 40.2768 90.58 40.2768 89.59V69.43C40.2768 68.41 40.0968 67.675 39.7368 67.225C39.3768 66.745 38.6568 66.385 37.5768 66.145C37.1868 66.055 36.9168 65.935 36.7668 65.785C36.6168 65.605 36.5418 65.41 36.5418 65.2C36.5418 65.02 36.6318 64.87 36.8118 64.75C36.9918 64.6 37.2318 64.525 37.5318 64.525C38.2218 64.525 38.9118 64.54 39.6018 64.57C40.3218 64.6 41.0118 64.645 41.6718 64.705C42.3618 64.735 43.0068 64.75 43.6068 64.75C44.3268 64.75 44.9568 64.72 45.4968 64.66C46.0668 64.57 46.6818 64.495 47.3418 64.435C48.0318 64.345 48.8568 64.3 49.8168 64.3C53.4768 64.3 56.3718 65.08 58.5018 66.64C60.6618 68.17 61.7418 70.285 61.7418 72.985C61.7418 74.875 61.3368 76.615 60.5268 78.205C59.7468 79.795 58.5468 81.085 56.9268 82.075C55.3368 83.035 53.3118 83.515 50.8518 83.515C50.0718 83.515 49.4718 83.395 49.0518 83.155C48.6618 82.915 48.4668 82.63 48.4668 82.3C48.4668 82.09 48.5568 81.925 48.7368 81.805C48.9468 81.655 49.1268 81.58 49.2768 81.58C49.6068 81.58 49.8918 81.625 50.1318 81.715C50.3718 81.775 50.7018 81.805 51.1218 81.805C52.3818 81.805 53.3268 81.1 53.9568 79.69C54.6168 78.28 54.9468 76.42 54.9468 74.11C54.9468 71.35 54.4968 69.355 53.5968 68.125C52.6968 66.895 51.4368 66.28 49.8168 66.28C48.9768 66.28 48.3318 66.475 47.8818 66.865C47.4618 67.225 47.2518 67.795 47.2518 68.575L47.2068 89.5C47.2068 90.46 47.4618 91.15 47.9718 91.57C48.4818 91.96 49.3668 92.29 50.6268 92.56C50.9568 92.62 51.1968 92.725 51.3468 92.875C51.5268 92.995 51.6168 93.19 51.6168 93.46C51.6168 93.67 51.5418 93.835 51.3918 93.955C51.2418 94.075 51.0318 94.135 50.7618 94.135C50.1018 94.135 49.3368 94.105 48.4668 94.045C47.6268 94.015 46.7868 93.985 45.9468 93.955C45.1068 93.925 44.3868 93.91 43.7868 93.91C43.1568 93.91 42.4668 93.925 41.7168 93.955C40.9668 93.985 40.1868 94.015 39.3768 94.045C38.5968 94.105 37.8768 94.135 37.2168 94.135ZM60.1843 94.225C59.8543 94.225 59.5693 94.165 59.3293 94.045C59.1193 93.955 59.0143 93.775 59.0143 93.505C59.0143 93.205 59.1043 92.995 59.2843 92.875C59.4943 92.725 59.7643 92.605 60.0943 92.515C60.9643 92.275 61.7143 91.9 62.3443 91.39C63.0043 90.88 63.4993 90.25 63.8293 89.5C64.5793 87.82 65.2843 86.17 65.9443 84.55C66.6043 82.9 67.2493 81.28 67.8793 79.69C68.5093 78.07 69.1393 76.435 69.7693 74.785C70.3993 73.105 71.0293 71.41 71.6593 69.7C72.1093 68.47 72.3943 67.585 72.5143 67.045C72.6343 66.475 72.7243 66.145 72.7843 66.055C73.3243 65.905 73.8343 65.77 74.3143 65.65C74.7943 65.53 75.3043 65.365 75.8443 65.155C76.3843 64.945 76.8343 64.675 77.1943 64.345C77.5843 64.015 77.8693 63.76 78.0493 63.58C78.1693 63.49 78.2893 63.445 78.4093 63.445C78.5293 63.415 78.6493 63.505 78.7693 63.715C78.8593 63.895 78.9343 64.09 78.9943 64.3C79.0843 64.48 79.1593 64.69 79.2193 64.93C79.8493 66.94 80.4943 68.995 81.1543 71.095C81.8143 73.165 82.4743 75.235 83.1343 77.305C83.8243 79.375 84.4993 81.43 85.1593 83.47C85.8193 85.48 86.4643 87.445 87.0943 89.365C87.2743 89.965 87.5443 90.475 87.9043 90.895C88.2943 91.315 88.7293 91.645 89.2093 91.885C89.6893 92.125 90.2293 92.335 90.8293 92.515C91.1593 92.605 91.4143 92.725 91.5943 92.875C91.8043 92.995 91.9093 93.19 91.9093 93.46C91.9093 93.67 91.8193 93.835 91.6393 93.955C91.4593 94.075 91.2493 94.135 91.0093 94.135C90.4093 94.135 89.6593 94.105 88.7593 94.045C87.8893 94.015 87.0043 93.985 86.1043 93.955C85.2043 93.925 84.4093 93.91 83.7193 93.91C83.1493 93.91 82.4443 93.925 81.6043 93.955C80.7943 93.985 79.9693 94.015 79.1293 94.045C78.2893 94.075 77.5693 94.09 76.9693 94.09C76.6993 94.09 76.4593 94.045 76.2493 93.955C76.0693 93.835 75.9793 93.67 75.9793 93.46C75.9793 93.19 76.0843 92.98 76.2943 92.83C76.5043 92.68 76.7593 92.575 77.0593 92.515C78.1693 92.275 78.9793 91.96 79.4893 91.57C79.9993 91.18 80.1643 90.595 79.9843 89.815C79.8643 89.245 79.7143 88.645 79.5343 88.015C79.3543 87.385 79.1743 86.755 78.9943 86.125C78.8443 85.465 78.6793 84.835 78.4993 84.235C78.4393 83.995 78.3643 83.815 78.2743 83.695C78.1843 83.575 78.0043 83.515 77.7343 83.515H69.7693C69.5593 83.515 69.3943 83.575 69.2743 83.695C69.1543 83.815 69.0643 84.01 69.0043 84.28C68.8843 84.7 68.7493 85.12 68.5993 85.54C68.4493 85.96 68.2993 86.38 68.1493 86.8C68.0293 87.22 67.9093 87.64 67.7893 88.06C67.6693 88.48 67.5493 88.885 67.4293 89.275C67.2193 90.175 67.3093 90.865 67.6993 91.345C68.0893 91.825 68.9293 92.215 70.2193 92.515C70.9393 92.665 71.2993 92.98 71.2993 93.46C71.2993 93.67 71.2093 93.835 71.0293 93.955C70.8793 94.045 70.6243 94.09 70.2643 94.09C69.3943 94.09 68.5843 94.06 67.8343 94C67.0843 93.97 66.2593 93.955 65.3593 93.955C64.4593 93.955 63.6043 94 62.7943 94.09C61.9843 94.18 61.1143 94.225 60.1843 94.225ZM71.0293 81.085H76.8793C77.3293 81.085 77.5543 80.98 77.5543 80.77C77.5543 80.68 77.5393 80.605 77.5093 80.545C77.5093 80.485 77.4943 80.41 77.4643 80.32L74.4493 70.15C74.3593 69.82 74.2693 69.655 74.1793 69.655C74.1193 69.655 74.0143 69.82 73.8643 70.15L70.3093 80.32C70.2493 80.44 70.2193 80.56 70.2193 80.68C70.2193 80.83 70.2943 80.935 70.4443 80.995C70.6243 81.055 70.8193 81.085 71.0293 81.085ZM92.6757 94.225C92.4057 94.225 92.1807 94.15 92.0007 94C91.8507 93.88 91.7757 93.73 91.7757 93.55C91.7757 93.1 92.1057 92.785 92.7657 92.605C93.7857 92.335 94.5057 92.02 94.9257 91.66C95.3757 91.3 95.6007 90.64 95.6007 89.68V69.205C95.6007 68.245 95.4057 67.555 95.0157 67.135C94.6257 66.685 93.9057 66.355 92.8557 66.145C92.4657 66.055 92.1957 65.935 92.0457 65.785C91.8957 65.605 91.8207 65.41 91.8207 65.2C91.8207 65.02 91.9107 64.87 92.0907 64.75C92.2707 64.6 92.4957 64.525 92.7657 64.525C93.7257 64.525 94.5207 64.555 95.1507 64.615C95.7807 64.675 96.3657 64.735 96.9057 64.795C97.4757 64.825 98.1357 64.84 98.8857 64.84C99.5757 64.84 100.206 64.81 100.776 64.75C101.346 64.66 101.976 64.585 102.666 64.525C103.386 64.465 104.256 64.435 105.276 64.435C108.846 64.435 111.546 64.945 113.376 65.965C115.236 66.955 116.166 68.68 116.166 71.14C116.166 72.07 115.956 72.955 115.536 73.795C115.116 74.605 114.576 75.28 113.916 75.82C113.436 76.24 112.926 76.585 112.386 76.855C111.876 77.125 111.291 77.35 110.631 77.53C110.511 77.56 110.451 77.635 110.451 77.755C110.451 77.875 110.511 77.95 110.631 77.98C111.411 78.16 112.221 78.4 113.061 78.7C113.901 78.97 114.681 79.375 115.401 79.915C116.151 80.455 116.736 81.16 117.156 82.03C117.606 82.87 117.831 83.95 117.831 85.27C117.831 86.95 117.561 88.285 117.021 89.275C116.511 90.235 115.881 90.97 115.131 91.48C114.411 91.99 113.736 92.41 113.106 92.74C112.116 93.22 110.991 93.58 109.731 93.82C108.471 94.06 106.971 94.18 105.231 94.18C104.241 94.18 103.236 94.15 102.216 94.09C101.226 94.03 100.176 94 99.0657 94C98.4357 94 97.7457 94.015 96.9957 94.045C96.2457 94.075 95.4957 94.105 94.7457 94.135C94.0257 94.195 93.3357 94.225 92.6757 94.225ZM105.276 91.705C106.176 91.705 107.016 91.435 107.796 90.895C108.606 90.355 109.236 89.635 109.686 88.735C110.166 87.805 110.406 86.755 110.406 85.585C110.406 84.565 110.271 83.71 110.001 83.02C109.761 82.33 109.461 81.775 109.101 81.355C108.771 80.935 108.456 80.62 108.156 80.41C107.916 80.2 107.481 79.99 106.851 79.78C106.251 79.54 105.501 79.42 104.601 79.42C104.091 79.42 103.611 79.555 103.161 79.825C102.741 80.065 102.531 80.425 102.531 80.905V88.825C102.531 89.815 102.771 90.55 103.251 91.03C103.731 91.48 104.406 91.705 105.276 91.705ZM104.331 77.395C105.051 77.395 105.711 77.32 106.311 77.17C106.911 76.99 107.526 76.66 108.156 76.18C108.366 75.97 108.651 75.55 109.011 74.92C109.401 74.26 109.596 73.315 109.596 72.085C109.596 70.825 109.431 69.775 109.101 68.935C108.771 68.095 108.261 67.465 107.571 67.045C106.911 66.625 106.026 66.415 104.916 66.415C104.076 66.415 103.461 66.58 103.071 66.91C102.711 67.21 102.531 67.675 102.531 68.305V75.82C102.531 76.42 102.741 76.84 103.161 77.08C103.581 77.29 103.971 77.395 104.331 77.395ZM120.935 94.135C120.725 94.135 120.515 94.09 120.305 94C120.125 93.88 120.035 93.715 120.035 93.505C120.035 93.025 120.35 92.71 120.98 92.56C122.12 92.32 122.885 92.02 123.275 91.66C123.695 91.27 123.905 90.595 123.905 89.635V69.205C123.905 68.215 123.725 67.525 123.365 67.135C123.005 66.745 122.24 66.415 121.07 66.145C120.41 65.995 120.08 65.68 120.08 65.2C120.08 64.99 120.17 64.825 120.35 64.705C120.56 64.585 120.77 64.525 120.98 64.525C121.67 64.525 122.39 64.54 123.14 64.57C123.92 64.6 124.67 64.645 125.39 64.705C126.11 64.735 126.77 64.75 127.37 64.75C127.97 64.75 128.645 64.735 129.395 64.705C130.175 64.675 130.955 64.645 131.735 64.615C132.545 64.585 133.28 64.57 133.94 64.57C134.21 64.57 134.405 64.63 134.525 64.75C134.675 64.84 134.75 64.99 134.75 65.2C134.75 65.5 134.66 65.71 134.48 65.83C134.33 65.95 134.105 66.055 133.805 66.145C132.575 66.475 131.765 66.85 131.375 67.27C131.015 67.69 130.835 68.35 130.835 69.25V84.505C130.835 84.925 130.88 85.15 130.97 85.18C131.06 85.21 131.24 85.09 131.51 84.82L144.515 70.51C144.815 70.21 144.965 69.88 144.965 69.52V69.07C144.935 68.17 144.71 67.525 144.29 67.135C143.9 66.745 143.135 66.415 141.995 66.145C141.335 65.995 141.005 65.68 141.005 65.2C141.005 64.99 141.095 64.825 141.275 64.705C141.485 64.585 141.695 64.525 141.905 64.525C142.595 64.525 143.315 64.54 144.065 64.57C144.845 64.6 145.61 64.645 146.36 64.705C147.11 64.735 147.785 64.75 148.385 64.75C148.985 64.75 149.645 64.735 150.365 64.705C151.115 64.675 151.88 64.645 152.66 64.615C153.47 64.585 154.205 64.57 154.865 64.57C155.135 64.57 155.33 64.63 155.45 64.75C155.6 64.84 155.675 64.99 155.675 65.2C155.675 65.5 155.585 65.71 155.405 65.83C155.255 65.95 155.03 66.055 154.73 66.145C153.5 66.475 152.72 66.85 152.39 67.27C152.06 67.69 151.895 68.35 151.895 69.25V89.59C151.895 90.46 152.075 91.105 152.435 91.525C152.795 91.915 153.56 92.26 154.73 92.56C155.06 92.65 155.3 92.755 155.45 92.875C155.63 92.995 155.72 93.19 155.72 93.46C155.72 93.67 155.645 93.835 155.495 93.955C155.345 94.075 155.135 94.135 154.865 94.135C154.205 94.135 153.47 94.105 152.66 94.045C151.88 94.015 151.1 93.985 150.32 93.955C149.57 93.925 148.895 93.91 148.295 93.91C147.695 93.91 147.035 93.925 146.315 93.955C145.595 93.985 144.845 94.015 144.065 94.045C143.315 94.105 142.595 94.135 141.905 94.135C141.695 94.135 141.485 94.09 141.275 94C141.095 93.88 141.005 93.715 141.005 93.505C141.005 93.025 141.32 92.71 141.95 92.56C143.06 92.32 143.84 92.02 144.29 91.66C144.74 91.3 144.965 90.655 144.965 89.725V74.2C144.965 73.81 144.83 73.735 144.56 73.975L131.42 88.465C131.21 88.675 131.06 88.87 130.97 89.05C130.88 89.2 130.835 89.41 130.835 89.68C130.835 90.55 131.06 91.18 131.51 91.57C131.96 91.93 132.755 92.26 133.895 92.56C134.195 92.65 134.42 92.755 134.57 92.875C134.75 92.995 134.84 93.19 134.84 93.46C134.84 93.67 134.765 93.835 134.615 93.955C134.495 94.075 134.3 94.135 134.03 94.135C133.37 94.135 132.635 94.105 131.825 94.045C131.015 94.015 130.22 93.985 129.44 93.955C128.66 93.925 127.97 93.91 127.37 93.91C126.77 93.91 126.095 93.925 125.345 93.955C124.625 93.985 123.875 94.015 123.095 94.045C122.345 94.105 121.625 94.135 120.935 94.135ZM160.766 94.765C159.506 94.765 158.561 94.45 157.931 93.82C157.301 93.19 156.986 92.455 156.986 91.615C156.986 90.955 157.106 90.385 157.346 89.905C157.586 89.425 157.961 89.185 158.471 89.185C159.341 89.395 160.121 89.545 160.811 89.635C161.531 89.725 162.161 89.77 162.701 89.77C163.451 89.77 164.141 89.425 164.771 88.735C165.401 88.015 165.941 86.86 166.391 85.27C166.871 83.68 167.246 81.565 167.516 78.925C167.786 76.285 167.921 73.03 167.921 69.16C167.921 68.26 167.621 67.615 167.021 67.225C166.421 66.835 165.416 66.475 164.006 66.145C163.346 65.995 163.016 65.68 163.016 65.2C163.016 64.99 163.106 64.825 163.286 64.705C163.496 64.585 163.706 64.525 163.916 64.525C164.516 64.525 165.221 64.54 166.031 64.57C166.841 64.6 167.636 64.645 168.416 64.705C169.226 64.735 169.931 64.75 170.531 64.75C171.161 64.75 171.656 64.75 172.016 64.75C172.376 64.75 172.721 64.75 173.051 64.75C173.381 64.75 173.831 64.75 174.401 64.75C174.971 64.75 175.796 64.75 176.876 64.75C177.986 64.75 179.486 64.75 181.376 64.75C181.976 64.75 182.651 64.735 183.401 64.705C184.181 64.675 184.961 64.645 185.741 64.615C186.551 64.585 187.286 64.57 187.946 64.57C188.216 64.57 188.426 64.63 188.576 64.75C188.726 64.84 188.801 64.99 188.801 65.2C188.801 65.5 188.711 65.71 188.531 65.83C188.381 65.95 188.141 66.055 187.811 66.145C186.611 66.475 185.816 66.85 185.426 67.27C185.036 67.66 184.841 68.32 184.841 69.25V89.59C184.841 90.46 185.051 91.105 185.471 91.525C185.921 91.915 186.731 92.26 187.901 92.56C188.201 92.65 188.426 92.755 188.576 92.875C188.756 92.995 188.846 93.19 188.846 93.46C188.846 93.67 188.771 93.835 188.621 93.955C188.501 94.075 188.306 94.135 188.036 94.135C187.376 94.135 186.641 94.105 185.831 94.045C185.021 94.015 184.226 93.985 183.446 93.955C182.666 93.925 181.976 93.91 181.376 93.91C180.746 93.91 180.056 93.925 179.306 93.955C178.556 93.985 177.776 94.015 176.966 94.045C176.186 94.105 175.451 94.135 174.761 94.135C174.551 94.135 174.356 94.09 174.176 94C173.996 93.88 173.906 93.715 173.906 93.505C173.906 93.025 174.221 92.71 174.851 92.56C175.991 92.32 176.786 92.005 177.236 91.615C177.686 91.225 177.911 90.565 177.911 89.635V70.105C177.911 69.175 177.731 68.455 177.371 67.945C177.041 67.435 176.321 67.18 175.211 67.18H172.871C172.001 67.18 171.401 67.375 171.071 67.765C170.741 68.125 170.576 68.65 170.576 69.34C170.576 73.63 170.351 77.26 169.901 80.23C169.451 83.2 168.866 85.645 168.146 87.565C167.426 89.485 166.631 90.97 165.761 92.02C164.891 93.04 164.006 93.745 163.106 94.135C162.236 94.555 161.456 94.765 160.766 94.765ZM191.601 94.225C191.301 94.225 191.061 94.15 190.881 94C190.731 93.88 190.656 93.73 190.656 93.55C190.656 93.1 190.986 92.785 191.646 92.605C192.666 92.335 193.386 92.02 193.806 91.66C194.256 91.3 194.481 90.64 194.481 89.68V69.205C194.481 68.245 194.286 67.57 193.896 67.18C193.506 66.76 192.711 66.415 191.511 66.145C190.881 65.995 190.566 65.68 190.566 65.2C190.566 64.99 190.656 64.825 190.836 64.705C191.016 64.585 191.211 64.525 191.421 64.525C192.111 64.525 192.846 64.54 193.626 64.57C194.406 64.6 195.156 64.645 195.876 64.705C196.626 64.735 197.316 64.75 197.946 64.75C198.546 64.75 199.221 64.735 199.971 64.705C200.751 64.675 201.531 64.645 202.311 64.615C203.121 64.585 203.856 64.57 204.516 64.57C204.786 64.57 204.996 64.63 205.146 64.75C205.296 64.84 205.371 64.99 205.371 65.2C205.371 65.5 205.281 65.71 205.101 65.83C204.951 65.95 204.711 66.055 204.381 66.145C203.181 66.475 202.371 66.85 201.951 67.27C201.561 67.66 201.366 68.32 201.366 69.25V75.865C201.366 76.855 201.831 77.35 202.761 77.35C202.821 77.35 202.881 77.35 202.941 77.35C203.031 77.35 203.121 77.335 203.211 77.305C203.601 77.245 204.141 77.17 204.831 77.08C205.521 76.96 206.256 76.9 207.036 76.9C209.856 76.9 212.091 77.62 213.741 79.06C215.421 80.5 216.261 82.51 216.261 85.09C216.261 86.8 215.991 88.15 215.451 89.14C214.911 90.13 214.281 90.88 213.561 91.39C212.841 91.9 212.196 92.32 211.626 92.65C210.696 93.19 209.646 93.58 208.476 93.82C207.336 94.06 206.001 94.18 204.471 94.18C204.291 94.18 203.991 94.165 203.571 94.135C203.151 94.105 202.506 94.075 201.636 94.045C200.796 94.015 199.566 94 197.946 94C197.316 94 196.626 94.015 195.876 94.045C195.156 94.075 194.421 94.105 193.671 94.135C192.921 94.195 192.231 94.225 191.601 94.225ZM203.841 92.38C204.681 92.38 205.476 92.08 206.226 91.48C206.976 90.85 207.591 90.01 208.071 88.96C208.551 87.88 208.791 86.665 208.791 85.315C208.791 84.235 208.656 83.335 208.386 82.615C208.146 81.895 207.831 81.325 207.441 80.905C207.081 80.455 206.751 80.125 206.451 79.915C206.181 79.735 205.791 79.525 205.281 79.285C204.771 79.045 204.111 78.925 203.301 78.925C203.121 78.925 202.926 78.94 202.716 78.97C202.536 78.97 202.386 79.015 202.266 79.105C201.996 79.165 201.786 79.3 201.636 79.51C201.486 79.72 201.411 80.02 201.411 80.41V89.5C201.411 89.92 201.441 90.31 201.501 90.67C201.591 91.03 201.741 91.33 201.951 91.57C202.191 91.81 202.461 92.005 202.761 92.155C203.091 92.305 203.451 92.38 203.841 92.38ZM219.109 94.135C218.899 94.135 218.689 94.09 218.479 94C218.299 93.88 218.209 93.715 218.209 93.505C218.209 93.025 218.524 92.71 219.154 92.56C220.204 92.32 220.909 92.02 221.269 91.66C221.659 91.27 221.854 90.595 221.854 89.635V69.205C221.854 68.215 221.674 67.525 221.314 67.135C220.984 66.745 220.294 66.415 219.244 66.145C218.584 65.995 218.254 65.68 218.254 65.2C218.254 64.99 218.344 64.825 218.524 64.705C218.734 64.585 218.944 64.525 219.154 64.525C219.844 64.525 220.549 64.54 221.269 64.57C221.989 64.6 222.694 64.645 223.384 64.705C224.074 64.735 224.719 64.75 225.319 64.75C225.919 64.75 226.594 64.735 227.344 64.705C228.124 64.675 228.904 64.645 229.684 64.615C230.494 64.585 231.229 64.57 231.889 64.57C232.429 64.57 232.699 64.795 232.699 65.245C232.699 65.515 232.609 65.71 232.429 65.83C232.279 65.95 232.054 66.055 231.754 66.145C230.554 66.475 229.759 66.85 229.369 67.27C228.979 67.69 228.784 68.35 228.784 69.25V77.35C228.784 77.59 228.844 77.755 228.964 77.845C229.114 77.935 229.294 77.98 229.504 77.98H241.384C241.774 77.98 241.969 77.77 241.969 77.35V69.25C241.969 68.35 241.774 67.69 241.384 67.27C241.024 66.85 240.244 66.475 239.044 66.145C238.714 66.055 238.459 65.95 238.279 65.83C238.129 65.71 238.054 65.515 238.054 65.245C238.054 64.795 238.339 64.57 238.909 64.57C239.569 64.57 240.304 64.585 241.114 64.615C241.924 64.645 242.719 64.675 243.499 64.705C244.279 64.735 244.969 64.75 245.569 64.75C246.139 64.75 246.754 64.735 247.414 64.705C248.104 64.645 248.794 64.6 249.484 64.57C250.204 64.54 250.909 64.525 251.599 64.525C251.839 64.525 252.049 64.585 252.229 64.705C252.409 64.825 252.499 64.99 252.499 65.2C252.499 65.68 252.184 65.995 251.554 66.145C250.474 66.415 249.754 66.76 249.394 67.18C249.064 67.57 248.899 68.245 248.899 69.205V89.59C248.899 90.58 249.079 91.27 249.439 91.66C249.829 92.02 250.534 92.32 251.554 92.56C252.184 92.71 252.499 93.025 252.499 93.505C252.499 93.715 252.409 93.88 252.229 94C252.049 94.09 251.854 94.135 251.644 94.135C251.014 94.135 250.339 94.105 249.619 94.045C248.899 94.015 248.179 93.985 247.459 93.955C246.739 93.925 246.079 93.91 245.479 93.91C244.879 93.91 244.189 93.925 243.409 93.955C242.659 93.985 241.879 94.015 241.069 94.045C240.259 94.105 239.524 94.135 238.864 94.135C238.624 94.135 238.429 94.075 238.279 93.955C238.129 93.835 238.054 93.67 238.054 93.46C238.054 93.16 238.129 92.965 238.279 92.875C238.459 92.755 238.699 92.65 238.999 92.56C240.139 92.26 240.919 91.915 241.339 91.525C241.759 91.105 241.969 90.46 241.969 89.59V81.175C241.969 80.935 241.924 80.755 241.834 80.635C241.774 80.485 241.639 80.41 241.429 80.41H229.414C228.994 80.41 228.784 80.65 228.784 81.13V89.545C228.784 90.385 229.009 91.03 229.459 91.48C229.909 91.9 230.704 92.26 231.844 92.56C232.144 92.65 232.369 92.755 232.519 92.875C232.699 92.965 232.789 93.16 232.789 93.46C232.789 93.67 232.714 93.835 232.564 93.955C232.444 94.075 232.249 94.135 231.979 94.135C231.319 94.135 230.584 94.105 229.774 94.045C228.964 94.015 228.169 93.985 227.389 93.955C226.609 93.925 225.919 93.91 225.319 93.91C224.719 93.91 224.044 93.925 223.294 93.955C222.574 93.985 221.839 94.015 221.089 94.045C220.369 94.105 219.709 94.135 219.109 94.135ZM254.379 94.225C254.049 94.225 253.764 94.165 253.524 94.045C253.314 93.955 253.209 93.775 253.209 93.505C253.209 93.205 253.299 92.995 253.479 92.875C253.689 92.725 253.959 92.605 254.289 92.515C255.159 92.275 255.909 91.9 256.539 91.39C257.199 90.88 257.694 90.25 258.024 89.5C258.774 87.82 259.479 86.17 260.139 84.55C260.799 82.9 261.444 81.28 262.074 79.69C262.704 78.07 263.334 76.435 263.964 74.785C264.594 73.105 265.224 71.41 265.854 69.7C266.304 68.47 266.589 67.585 266.709 67.045C266.829 66.475 266.919 66.145 266.979 66.055C267.519 65.905 268.029 65.77 268.509 65.65C268.989 65.53 269.499 65.365 270.039 65.155C270.579 64.945 271.029 64.675 271.389 64.345C271.779 64.015 272.064 63.76 272.244 63.58C272.364 63.49 272.484 63.445 272.604 63.445C272.724 63.415 272.844 63.505 272.964 63.715C273.054 63.895 273.129 64.09 273.189 64.3C273.279 64.48 273.354 64.69 273.414 64.93C274.044 66.94 274.689 68.995 275.349 71.095C276.009 73.165 276.669 75.235 277.329 77.305C278.019 79.375 278.694 81.43 279.354 83.47C280.014 85.48 280.659 87.445 281.289 89.365C281.469 89.965 281.739 90.475 282.099 90.895C282.489 91.315 282.924 91.645 283.404 91.885C283.884 92.125 284.424 92.335 285.024 92.515C285.354 92.605 285.609 92.725 285.789 92.875C285.999 92.995 286.104 93.19 286.104 93.46C286.104 93.67 286.014 93.835 285.834 93.955C285.654 94.075 285.444 94.135 285.204 94.135C284.604 94.135 283.854 94.105 282.954 94.045C282.084 94.015 281.199 93.985 280.299 93.955C279.399 93.925 278.604 93.91 277.914 93.91C277.344 93.91 276.639 93.925 275.799 93.955C274.989 93.985 274.164 94.015 273.324 94.045C272.484 94.075 271.764 94.09 271.164 94.09C270.894 94.09 270.654 94.045 270.444 93.955C270.264 93.835 270.174 93.67 270.174 93.46C270.174 93.19 270.279 92.98 270.489 92.83C270.699 92.68 270.954 92.575 271.254 92.515C272.364 92.275 273.174 91.96 273.684 91.57C274.194 91.18 274.359 90.595 274.179 89.815C274.059 89.245 273.909 88.645 273.729 88.015C273.549 87.385 273.369 86.755 273.189 86.125C273.039 85.465 272.874 84.835 272.694 84.235C272.634 83.995 272.559 83.815 272.469 83.695C272.379 83.575 272.199 83.515 271.929 83.515H263.964C263.754 83.515 263.589 83.575 263.469 83.695C263.349 83.815 263.259 84.01 263.199 84.28C263.079 84.7 262.944 85.12 262.794 85.54C262.644 85.96 262.494 86.38 262.344 86.8C262.224 87.22 262.104 87.64 261.984 88.06C261.864 88.48 261.744 88.885 261.624 89.275C261.414 90.175 261.504 90.865 261.894 91.345C262.284 91.825 263.124 92.215 264.414 92.515C265.134 92.665 265.494 92.98 265.494 93.46C265.494 93.67 265.404 93.835 265.224 93.955C265.074 94.045 264.819 94.09 264.459 94.09C263.589 94.09 262.779 94.06 262.029 94C261.279 93.97 260.454 93.955 259.554 93.955C258.654 93.955 257.799 94 256.989 94.09C256.179 94.18 255.309 94.225 254.379 94.225ZM265.224 81.085H271.074C271.524 81.085 271.749 80.98 271.749 80.77C271.749 80.68 271.734 80.605 271.704 80.545C271.704 80.485 271.689 80.41 271.659 80.32L268.644 70.15C268.554 69.82 268.464 69.655 268.374 69.655C268.314 69.655 268.209 69.82 268.059 70.15L264.504 80.32C264.444 80.44 264.414 80.56 264.414 80.68C264.414 80.83 264.489 80.935 264.639 80.995C264.819 81.055 265.014 81.085 265.224 81.085ZM290.411 94.675C289.271 94.675 288.311 94.585 287.531 94.405C286.781 94.225 286.211 94.015 285.821 93.775C285.701 93.715 285.596 93.61 285.506 93.46C285.386 93.31 285.326 93.175 285.326 93.055C285.326 92.875 285.401 92.71 285.551 92.56C285.671 92.38 285.821 92.29 286.001 92.29C287.081 92.29 288.011 92.02 288.791 91.48C289.601 90.94 290.321 90.22 290.951 89.32C291.611 88.39 292.256 87.385 292.886 86.305C293.696 84.895 294.596 83.605 295.586 82.435C296.576 81.265 297.746 80.425 299.096 79.915C299.216 79.855 299.291 79.795 299.321 79.735C299.351 79.645 299.201 79.57 298.871 79.51C297.521 79.21 296.351 78.73 295.361 78.07C294.401 77.41 293.666 76.585 293.156 75.595C292.646 74.575 292.391 73.435 292.391 72.175C292.391 70.465 292.826 69.04 293.696 67.9C294.596 66.73 295.886 65.86 297.566 65.29C299.246 64.72 301.256 64.435 303.596 64.435C304.646 64.435 305.486 64.465 306.116 64.525C306.776 64.555 307.376 64.6 307.916 64.66C308.456 64.72 309.071 64.75 309.761 64.75C310.361 64.75 311.021 64.735 311.741 64.705C312.491 64.645 313.241 64.6 313.991 64.57C314.771 64.54 315.506 64.525 316.196 64.525C316.406 64.525 316.601 64.585 316.781 64.705C316.991 64.825 317.096 64.99 317.096 65.2C317.096 65.68 316.766 65.995 316.106 66.145C314.936 66.415 314.141 66.76 313.721 67.18C313.301 67.57 313.091 68.245 313.091 69.205V89.635C313.091 90.595 313.286 91.27 313.676 91.66C314.066 92.02 314.831 92.32 315.971 92.56C316.751 92.71 317.141 93.025 317.141 93.505C317.141 93.715 317.006 93.895 316.736 94.045C316.466 94.195 316.181 94.27 315.881 94.27C314.891 94.27 314.051 94.225 313.361 94.135C312.671 94.075 312.056 94.015 311.516 93.955C310.976 93.895 310.391 93.865 309.761 93.865C309.161 93.865 308.546 93.895 307.916 93.955C307.316 93.985 306.656 94.03 305.936 94.09C305.216 94.15 304.391 94.18 303.461 94.18C303.131 94.18 302.831 94.12 302.561 94C302.321 93.85 302.201 93.67 302.201 93.46C302.201 93.19 302.321 92.995 302.561 92.875C302.801 92.755 303.071 92.65 303.371 92.56C304.151 92.32 304.721 92.095 305.081 91.885C305.471 91.645 305.726 91.345 305.846 90.985C305.996 90.625 306.086 90.16 306.116 89.59L306.206 80.815C306.206 80.485 306.146 80.275 306.026 80.185C305.906 80.095 305.696 80.05 305.396 80.05C305.216 80.05 305.006 80.11 304.766 80.23C304.556 80.35 304.331 80.5 304.091 80.68C303.191 81.49 302.336 82.63 301.526 84.1C300.746 85.54 299.906 87.025 299.006 88.555C298.406 89.665 297.686 90.685 296.846 91.615C296.006 92.545 295.046 93.295 293.966 93.865C292.916 94.405 291.731 94.675 290.411 94.675ZM304.271 78.52C304.871 78.52 305.336 78.4 305.666 78.16C305.996 77.89 306.161 77.44 306.161 76.81V68.755C306.161 67.945 305.966 67.36 305.576 67C305.216 66.61 304.616 66.415 303.776 66.415C302.846 66.415 302.021 66.64 301.301 67.09C300.611 67.54 300.071 68.215 299.681 69.115C299.321 70.015 299.141 71.17 299.141 72.58C299.141 74.44 299.561 75.895 300.401 76.945C301.271 77.995 302.561 78.52 304.271 78.52Z" fill="white"/>
<path d="M540.755 94.135C540.545 94.135 540.335 94.09 540.125 94C539.945 93.88 539.855 93.715 539.855 93.505C539.855 93.025 540.17 92.71 540.8 92.56C541.85 92.32 542.585 92.02 543.005 91.66C543.455 91.27 543.68 90.595 543.68 89.635V69.205C543.68 68.245 543.485 67.57 543.095 67.18C542.705 66.76 541.97 66.415 540.89 66.145C540.26 65.995 539.945 65.68 539.945 65.2C539.945 64.99 540.035 64.825 540.215 64.705C540.425 64.585 540.635 64.525 540.845 64.525C541.535 64.525 542.24 64.54 542.96 64.57C543.68 64.6 544.385 64.645 545.075 64.705C545.765 64.735 546.41 64.75 547.01 64.75C548.75 64.75 550.415 64.75 552.005 64.75C553.625 64.75 555.26 64.75 556.91 64.75C558.5 64.75 560.075 64.75 561.635 64.75C563.225 64.75 564.86 64.75 566.54 64.75C567.14 64.75 567.785 64.735 568.475 64.705C569.165 64.645 569.87 64.6 570.59 64.57C571.31 64.54 572.015 64.525 572.705 64.525C572.945 64.525 573.155 64.585 573.335 64.705C573.515 64.825 573.605 64.99 573.605 65.2C573.605 65.68 573.29 65.995 572.66 66.145C571.58 66.415 570.845 66.76 570.455 67.18C570.065 67.57 569.87 68.245 569.87 69.205V89.635C569.87 90.595 570.08 91.27 570.5 91.66C570.95 92.02 571.685 92.32 572.705 92.56C573.365 92.71 573.695 93.025 573.695 93.505C573.695 93.715 573.59 93.88 573.38 94C573.2 94.09 573.005 94.135 572.795 94.135C572.165 94.135 571.475 94.105 570.725 94.045C570.005 94.015 569.27 93.985 568.52 93.955C567.8 93.925 567.14 93.91 566.54 93.91C565.94 93.91 565.235 93.925 564.425 93.955C563.615 93.985 562.805 94.015 561.995 94.045C561.185 94.105 560.45 94.135 559.79 94.135C559.52 94.135 559.31 94.075 559.16 93.955C559.01 93.835 558.935 93.67 558.935 93.46C558.935 93.19 559.01 92.995 559.16 92.875C559.34 92.755 559.595 92.65 559.925 92.56C561.095 92.26 561.875 91.9 562.265 91.48C562.685 91.06 562.91 90.43 562.94 89.59C563.06 86.02 563.135 82.405 563.165 78.745C563.195 75.085 563.12 71.47 562.94 67.9C562.94 67.69 562.895 67.54 562.805 67.45C562.715 67.33 562.565 67.255 562.355 67.225C561.695 67.165 561.05 67.12 560.42 67.09C559.82 67.06 559.22 67.045 558.62 67.045C558.02 67.015 557.405 67 556.775 67C555.875 67 554.96 67.03 554.03 67.09C553.13 67.12 552.2 67.165 551.24 67.225C550.85 67.255 550.64 67.495 550.61 67.945C550.28 71.455 550.145 75.055 550.205 78.745C550.265 82.405 550.4 86.02 550.61 89.59C550.64 90.43 550.85 91.06 551.24 91.48C551.66 91.9 552.455 92.26 553.625 92.56C553.925 92.65 554.165 92.755 554.345 92.875C554.525 92.995 554.615 93.19 554.615 93.46C554.615 93.67 554.54 93.835 554.39 93.955C554.24 94.075 554.03 94.135 553.76 94.135C553.1 94.135 552.365 94.105 551.555 94.045C550.745 94.015 549.95 93.985 549.17 93.955C548.42 93.925 547.73 93.91 547.1 93.91C546.47 93.91 545.78 93.925 545.03 93.955C544.28 93.985 543.53 94.015 542.78 94.045C542.03 94.105 541.355 94.135 540.755 94.135ZM575.542 94.225C575.212 94.225 574.927 94.165 574.687 94.045C574.477 93.955 574.372 93.775 574.372 93.505C574.372 93.205 574.462 92.995 574.642 92.875C574.852 92.725 575.122 92.605 575.452 92.515C576.322 92.275 577.072 91.9 577.702 91.39C578.362 90.88 578.857 90.25 579.187 89.5C579.937 87.82 580.642 86.17 581.302 84.55C581.962 82.9 582.607 81.28 583.237 79.69C583.867 78.07 584.497 76.435 585.127 74.785C585.757 73.105 586.387 71.41 587.017 69.7C587.467 68.47 587.752 67.585 587.872 67.045C587.992 66.475 588.082 66.145 588.142 66.055C588.682 65.905 589.192 65.77 589.672 65.65C590.152 65.53 590.662 65.365 591.202 65.155C591.742 64.945 592.192 64.675 592.552 64.345C592.942 64.015 593.227 63.76 593.407 63.58C593.527 63.49 593.647 63.445 593.767 63.445C593.887 63.415 594.007 63.505 594.127 63.715C594.217 63.895 594.292 64.09 594.352 64.3C594.442 64.48 594.517 64.69 594.577 64.93C595.207 66.94 595.852 68.995 596.512 71.095C597.172 73.165 597.832 75.235 598.492 77.305C599.182 79.375 599.857 81.43 600.517 83.47C601.177 85.48 601.822 87.445 602.452 89.365C602.632 89.965 602.902 90.475 603.262 90.895C603.652 91.315 604.087 91.645 604.567 91.885C605.047 92.125 605.587 92.335 606.187 92.515C606.517 92.605 606.772 92.725 606.952 92.875C607.162 92.995 607.267 93.19 607.267 93.46C607.267 93.67 607.177 93.835 606.997 93.955C606.817 94.075 606.607 94.135 606.367 94.135C605.767 94.135 605.017 94.105 604.117 94.045C603.247 94.015 602.362 93.985 601.462 93.955C600.562 93.925 599.767 93.91 599.077 93.91C598.507 93.91 597.802 93.925 596.962 93.955C596.152 93.985 595.327 94.015 594.487 94.045C593.647 94.075 592.927 94.09 592.327 94.09C592.057 94.09 591.817 94.045 591.607 93.955C591.427 93.835 591.337 93.67 591.337 93.46C591.337 93.19 591.442 92.98 591.652 92.83C591.862 92.68 592.117 92.575 592.417 92.515C593.527 92.275 594.337 91.96 594.847 91.57C595.357 91.18 595.522 90.595 595.342 89.815C595.222 89.245 595.072 88.645 594.892 88.015C594.712 87.385 594.532 86.755 594.352 86.125C594.202 85.465 594.037 84.835 593.857 84.235C593.797 83.995 593.722 83.815 593.632 83.695C593.542 83.575 593.362 83.515 593.092 83.515H585.127C584.917 83.515 584.752 83.575 584.632 83.695C584.512 83.815 584.422 84.01 584.362 84.28C584.242 84.7 584.107 85.12 583.957 85.54C583.807 85.96 583.657 86.38 583.507 86.8C583.387 87.22 583.267 87.64 583.147 88.06C583.027 88.48 582.907 88.885 582.787 89.275C582.577 90.175 582.667 90.865 583.057 91.345C583.447 91.825 584.287 92.215 585.577 92.515C586.297 92.665 586.657 92.98 586.657 93.46C586.657 93.67 586.567 93.835 586.387 93.955C586.237 94.045 585.982 94.09 585.622 94.09C584.752 94.09 583.942 94.06 583.192 94C582.442 93.97 581.617 93.955 580.717 93.955C579.817 93.955 578.962 94 578.152 94.09C577.342 94.18 576.472 94.225 575.542 94.225ZM586.387 81.085H592.237C592.687 81.085 592.912 80.98 592.912 80.77C592.912 80.68 592.897 80.605 592.867 80.545C592.867 80.485 592.852 80.41 592.822 80.32L589.807 70.15C589.717 69.82 589.627 69.655 589.537 69.655C589.477 69.655 589.372 69.82 589.222 70.15L585.667 80.32C585.607 80.44 585.577 80.56 585.577 80.68C585.577 80.83 585.652 80.935 585.802 80.995C585.982 81.055 586.177 81.085 586.387 81.085ZM624.154 94.63C621.814 94.63 619.624 94.285 617.584 93.595C615.544 92.875 613.744 91.87 612.184 90.58C610.624 89.26 609.409 87.685 608.539 85.855C607.669 84.025 607.234 82 607.234 79.78C607.234 77.71 607.639 75.745 608.449 73.885C609.289 71.995 610.504 70.33 612.094 68.89C613.684 67.42 615.589 66.265 617.809 65.425C620.059 64.555 622.594 64.12 625.414 64.12C626.374 64.12 627.334 64.195 628.294 64.345C629.284 64.465 630.229 64.645 631.129 64.885C632.059 65.125 632.899 65.38 633.649 65.65C633.919 65.77 634.144 65.935 634.324 66.145C634.534 66.325 634.654 66.595 634.684 66.955C634.804 67.945 634.894 68.905 634.954 69.835C635.014 70.765 635.044 71.605 635.044 72.355C635.044 72.685 634.924 72.91 634.684 73.03C634.444 73.15 634.174 73.165 633.874 73.075C633.604 72.955 633.409 72.715 633.289 72.355C633.079 71.665 632.824 70.975 632.524 70.285C632.254 69.595 631.834 68.995 631.264 68.485C630.664 67.885 629.824 67.39 628.744 67C627.694 66.61 626.419 66.415 624.919 66.415C623.389 66.415 621.994 66.745 620.734 67.405C619.504 68.065 618.439 68.965 617.539 70.105C616.669 71.245 615.994 72.535 615.514 73.975C615.034 75.415 614.794 76.915 614.794 78.475C614.794 80.455 615.004 82.3 615.424 84.01C615.844 85.69 616.489 87.145 617.359 88.375C618.229 89.605 619.294 90.565 620.554 91.255C621.814 91.945 623.299 92.29 625.009 92.29C627.229 92.29 629.029 91.825 630.409 90.895C631.789 89.935 632.944 88.48 633.874 86.53C634.114 85.99 634.444 85.735 634.864 85.765C635.314 85.795 635.539 86.05 635.539 86.53C635.539 86.92 635.494 87.4 635.404 87.97C635.344 88.51 635.239 89.095 635.089 89.725C634.939 90.355 634.759 91 634.549 91.66C634.429 92.02 634.264 92.305 634.054 92.515C633.874 92.695 633.634 92.86 633.334 93.01C632.194 93.49 630.844 93.88 629.284 94.18C627.724 94.48 626.014 94.63 624.154 94.63ZM647.103 94.135C646.893 94.135 646.668 94.09 646.428 94C646.188 93.88 646.068 93.715 646.068 93.505C646.068 93.235 646.173 93.025 646.383 92.875C646.593 92.725 646.848 92.62 647.148 92.56C648.288 92.32 649.113 92.005 649.623 91.615C650.163 91.225 650.433 90.55 650.433 89.59V71.005C650.433 69.835 650.403 68.98 650.343 68.44C650.283 67.87 650.193 67.495 650.073 67.315C649.983 67.105 649.863 66.97 649.713 66.91C649.443 66.76 649.083 66.685 648.633 66.685C648.213 66.655 647.868 66.64 647.598 66.64H646.608C645.648 66.64 644.733 66.88 643.863 67.36C643.023 67.81 642.348 68.38 641.838 69.07C641.688 69.28 641.463 69.58 641.163 69.97C640.893 70.33 640.593 70.66 640.263 70.96C639.963 71.23 639.663 71.365 639.363 71.365C639.123 71.365 638.958 71.29 638.868 71.14C638.778 70.96 638.733 70.765 638.733 70.555C638.733 70.195 638.823 69.82 639.003 69.43C639.573 68.29 639.993 67.315 640.263 66.505C640.533 65.695 640.713 64.765 640.803 63.715C640.863 63.265 640.998 62.965 641.208 62.815C641.418 62.635 641.658 62.545 641.928 62.545C642.138 62.545 642.363 62.74 642.603 63.13C642.843 63.52 643.098 63.835 643.368 64.075C643.668 64.315 644.163 64.495 644.853 64.615C645.573 64.735 646.158 64.795 646.608 64.795H663.528C664.278 64.795 664.908 64.72 665.418 64.57C665.958 64.42 666.363 64.27 666.633 64.12C667.113 63.85 667.488 63.55 667.758 63.22C668.058 62.89 668.403 62.725 668.793 62.725C668.973 62.725 669.093 62.8 669.153 62.95C669.243 63.07 669.288 63.25 669.288 63.49C669.288 63.61 669.273 63.76 669.243 63.94C669.243 64.12 669.228 64.285 669.198 64.435C669.048 65.005 668.898 65.56 668.748 66.1C668.598 66.61 668.478 67.105 668.388 67.585C668.298 68.065 668.253 68.56 668.253 69.07V69.97C668.253 70.45 668.193 70.84 668.073 71.14C667.983 71.44 667.788 71.59 667.488 71.59C667.218 71.59 666.993 71.455 666.813 71.185C666.633 70.885 666.438 70.42 666.228 69.79C665.898 68.71 665.403 67.915 664.743 67.405C664.113 66.895 663.138 66.64 661.818 66.64H659.478C658.968 66.64 658.548 66.76 658.218 67C657.918 67.21 657.693 67.66 657.543 68.35C657.393 69.01 657.318 70.03 657.318 71.41V89.545C657.318 90.445 657.558 91.105 658.038 91.525C658.548 91.915 659.388 92.26 660.558 92.56C660.858 92.65 661.113 92.755 661.323 92.875C661.533 92.995 661.638 93.19 661.638 93.46C661.638 93.67 661.548 93.835 661.368 93.955C661.188 94.075 660.963 94.135 660.693 94.135C660.033 94.135 659.283 94.105 658.443 94.045C657.633 94.015 656.808 93.985 655.968 93.955C655.158 93.925 654.453 93.91 653.853 93.91C653.223 93.91 652.503 93.925 651.693 93.955C650.913 93.985 650.118 94.015 649.308 94.045C648.528 94.105 647.793 94.135 647.103 94.135ZM670.877 94.135C670.667 94.135 670.457 94.09 670.247 94C670.067 93.88 669.977 93.715 669.977 93.505C669.977 93.025 670.292 92.71 670.922 92.56C672.062 92.32 672.827 92.02 673.217 91.66C673.637 91.27 673.847 90.595 673.847 89.635V69.205C673.847 68.215 673.667 67.525 673.307 67.135C672.947 66.745 672.182 66.415 671.012 66.145C670.352 65.995 670.022 65.68 670.022 65.2C670.022 64.99 670.112 64.825 670.292 64.705C670.502 64.585 670.712 64.525 670.922 64.525C671.612 64.525 672.332 64.54 673.082 64.57C673.862 64.6 674.612 64.645 675.332 64.705C676.052 64.735 676.712 64.75 677.312 64.75C677.912 64.75 678.587 64.735 679.337 64.705C680.117 64.675 680.897 64.645 681.677 64.615C682.487 64.585 683.222 64.57 683.882 64.57C684.152 64.57 684.347 64.63 684.467 64.75C684.617 64.84 684.692 64.99 684.692 65.2C684.692 65.5 684.602 65.71 684.422 65.83C684.272 65.95 684.047 66.055 683.747 66.145C682.517 66.475 681.707 66.85 681.317 67.27C680.957 67.69 680.777 68.35 680.777 69.25V84.505C680.777 84.925 680.822 85.15 680.912 85.18C681.002 85.21 681.182 85.09 681.452 84.82L694.457 70.51C694.757 70.21 694.907 69.88 694.907 69.52V69.07C694.877 68.17 694.652 67.525 694.232 67.135C693.842 66.745 693.077 66.415 691.937 66.145C691.277 65.995 690.947 65.68 690.947 65.2C690.947 64.99 691.037 64.825 691.217 64.705C691.427 64.585 691.637 64.525 691.847 64.525C692.537 64.525 693.257 64.54 694.007 64.57C694.787 64.6 695.552 64.645 696.302 64.705C697.052 64.735 697.727 64.75 698.327 64.75C698.927 64.75 699.587 64.735 700.307 64.705C701.057 64.675 701.822 64.645 702.602 64.615C703.412 64.585 704.147 64.57 704.807 64.57C705.077 64.57 705.272 64.63 705.392 64.75C705.542 64.84 705.617 64.99 705.617 65.2C705.617 65.5 705.527 65.71 705.347 65.83C705.197 65.95 704.972 66.055 704.672 66.145C703.442 66.475 702.662 66.85 702.332 67.27C702.002 67.69 701.837 68.35 701.837 69.25V89.59C701.837 90.46 702.017 91.105 702.377 91.525C702.737 91.915 703.502 92.26 704.672 92.56C705.002 92.65 705.242 92.755 705.392 92.875C705.572 92.995 705.662 93.19 705.662 93.46C705.662 93.67 705.587 93.835 705.437 93.955C705.287 94.075 705.077 94.135 704.807 94.135C704.147 94.135 703.412 94.105 702.602 94.045C701.822 94.015 701.042 93.985 700.262 93.955C699.512 93.925 698.837 93.91 698.237 93.91C697.637 93.91 696.977 93.925 696.257 93.955C695.537 93.985 694.787 94.015 694.007 94.045C693.257 94.105 692.537 94.135 691.847 94.135C691.637 94.135 691.427 94.09 691.217 94C691.037 93.88 690.947 93.715 690.947 93.505C690.947 93.025 691.262 92.71 691.892 92.56C693.002 92.32 693.782 92.02 694.232 91.66C694.682 91.3 694.907 90.655 694.907 89.725V74.2C694.907 73.81 694.772 73.735 694.502 73.975L681.362 88.465C681.152 88.675 681.002 88.87 680.912 89.05C680.822 89.2 680.777 89.41 680.777 89.68C680.777 90.55 681.002 91.18 681.452 91.57C681.902 91.93 682.697 92.26 683.837 92.56C684.137 92.65 684.362 92.755 684.512 92.875C684.692 92.995 684.782 93.19 684.782 93.46C684.782 93.67 684.707 93.835 684.557 93.955C684.437 94.075 684.242 94.135 683.972 94.135C683.312 94.135 682.577 94.105 681.767 94.045C680.957 94.015 680.162 93.985 679.382 93.955C678.602 93.925 677.912 93.91 677.312 93.91C676.712 93.91 676.037 93.925 675.287 93.955C674.567 93.985 673.817 94.015 673.037 94.045C672.287 94.105 671.567 94.135 670.877 94.135ZM710.709 94.765C709.449 94.765 708.504 94.45 707.874 93.82C707.244 93.19 706.929 92.455 706.929 91.615C706.929 90.955 707.049 90.385 707.289 89.905C707.529 89.425 707.904 89.185 708.414 89.185C709.284 89.395 710.064 89.545 710.754 89.635C711.474 89.725 712.104 89.77 712.644 89.77C713.394 89.77 714.084 89.425 714.714 88.735C715.344 88.015 715.884 86.86 716.334 85.27C716.814 83.68 717.189 81.565 717.459 78.925C717.729 76.285 717.864 73.03 717.864 69.16C717.864 68.26 717.564 67.615 716.964 67.225C716.364 66.835 715.359 66.475 713.949 66.145C713.289 65.995 712.959 65.68 712.959 65.2C712.959 64.99 713.049 64.825 713.229 64.705C713.439 64.585 713.649 64.525 713.859 64.525C714.459 64.525 715.164 64.54 715.974 64.57C716.784 64.6 717.579 64.645 718.359 64.705C719.169 64.735 719.874 64.75 720.474 64.75C721.104 64.75 721.599 64.75 721.959 64.75C722.319 64.75 722.664 64.75 722.994 64.75C723.324 64.75 723.774 64.75 724.344 64.75C724.914 64.75 725.739 64.75 726.819 64.75C727.929 64.75 729.429 64.75 731.319 64.75C731.919 64.75 732.594 64.735 733.344 64.705C734.124 64.675 734.904 64.645 735.684 64.615C736.494 64.585 737.229 64.57 737.889 64.57C738.159 64.57 738.369 64.63 738.519 64.75C738.669 64.84 738.744 64.99 738.744 65.2C738.744 65.5 738.654 65.71 738.474 65.83C738.324 65.95 738.084 66.055 737.754 66.145C736.554 66.475 735.759 66.85 735.369 67.27C734.979 67.66 734.784 68.32 734.784 69.25V89.59C734.784 90.46 734.994 91.105 735.414 91.525C735.864 91.915 736.674 92.26 737.844 92.56C738.144 92.65 738.369 92.755 738.519 92.875C738.699 92.995 738.789 93.19 738.789 93.46C738.789 93.67 738.714 93.835 738.564 93.955C738.444 94.075 738.249 94.135 737.979 94.135C737.319 94.135 736.584 94.105 735.774 94.045C734.964 94.015 734.169 93.985 733.389 93.955C732.609 93.925 731.919 93.91 731.319 93.91C730.689 93.91 729.999 93.925 729.249 93.955C728.499 93.985 727.719 94.015 726.909 94.045C726.129 94.105 725.394 94.135 724.704 94.135C724.494 94.135 724.299 94.09 724.119 94C723.939 93.88 723.849 93.715 723.849 93.505C723.849 93.025 724.164 92.71 724.794 92.56C725.934 92.32 726.729 92.005 727.179 91.615C727.629 91.225 727.854 90.565 727.854 89.635V70.105C727.854 69.175 727.674 68.455 727.314 67.945C726.984 67.435 726.264 67.18 725.154 67.18H722.814C721.944 67.18 721.344 67.375 721.014 67.765C720.684 68.125 720.519 68.65 720.519 69.34C720.519 73.63 720.294 77.26 719.844 80.23C719.394 83.2 718.809 85.645 718.089 87.565C717.369 89.485 716.574 90.97 715.704 92.02C714.834 93.04 713.949 93.745 713.049 94.135C712.179 94.555 711.399 94.765 710.709 94.765ZM740.688 94.225C740.358 94.225 740.073 94.165 739.833 94.045C739.623 93.955 739.518 93.775 739.518 93.505C739.518 93.205 739.608 92.995 739.788 92.875C739.998 92.725 740.268 92.605 740.598 92.515C741.468 92.275 742.218 91.9 742.848 91.39C743.508 90.88 744.003 90.25 744.333 89.5C745.083 87.82 745.788 86.17 746.448 84.55C747.108 82.9 747.753 81.28 748.383 79.69C749.013 78.07 749.643 76.435 750.273 74.785C750.903 73.105 751.533 71.41 752.163 69.7C752.613 68.47 752.898 67.585 753.018 67.045C753.138 66.475 753.228 66.145 753.288 66.055C753.828 65.905 754.338 65.77 754.818 65.65C755.298 65.53 755.808 65.365 756.348 65.155C756.888 64.945 757.338 64.675 757.698 64.345C758.088 64.015 758.373 63.76 758.553 63.58C758.673 63.49 758.793 63.445 758.913 63.445C759.033 63.415 759.153 63.505 759.273 63.715C759.363 63.895 759.438 64.09 759.498 64.3C759.588 64.48 759.663 64.69 759.723 64.93C760.353 66.94 760.998 68.995 761.658 71.095C762.318 73.165 762.978 75.235 763.638 77.305C764.328 79.375 765.003 81.43 765.663 83.47C766.323 85.48 766.968 87.445 767.598 89.365C767.778 89.965 768.048 90.475 768.408 90.895C768.798 91.315 769.233 91.645 769.713 91.885C770.193 92.125 770.733 92.335 771.333 92.515C771.663 92.605 771.918 92.725 772.098 92.875C772.308 92.995 772.413 93.19 772.413 93.46C772.413 93.67 772.323 93.835 772.143 93.955C771.963 94.075 771.753 94.135 771.513 94.135C770.913 94.135 770.163 94.105 769.263 94.045C768.393 94.015 767.508 93.985 766.608 93.955C765.708 93.925 764.913 93.91 764.223 93.91C763.653 93.91 762.948 93.925 762.108 93.955C761.298 93.985 760.473 94.015 759.633 94.045C758.793 94.075 758.073 94.09 757.473 94.09C757.203 94.09 756.963 94.045 756.753 93.955C756.573 93.835 756.483 93.67 756.483 93.46C756.483 93.19 756.588 92.98 756.798 92.83C757.008 92.68 757.263 92.575 757.563 92.515C758.673 92.275 759.483 91.96 759.993 91.57C760.503 91.18 760.668 90.595 760.488 89.815C760.368 89.245 760.218 88.645 760.038 88.015C759.858 87.385 759.678 86.755 759.498 86.125C759.348 85.465 759.183 84.835 759.003 84.235C758.943 83.995 758.868 83.815 758.778 83.695C758.688 83.575 758.508 83.515 758.238 83.515H750.273C750.063 83.515 749.898 83.575 749.778 83.695C749.658 83.815 749.568 84.01 749.508 84.28C749.388 84.7 749.253 85.12 749.103 85.54C748.953 85.96 748.803 86.38 748.653 86.8C748.533 87.22 748.413 87.64 748.293 88.06C748.173 88.48 748.053 88.885 747.933 89.275C747.723 90.175 747.813 90.865 748.203 91.345C748.593 91.825 749.433 92.215 750.723 92.515C751.443 92.665 751.803 92.98 751.803 93.46C751.803 93.67 751.713 93.835 751.533 93.955C751.383 94.045 751.128 94.09 750.768 94.09C749.898 94.09 749.088 94.06 748.338 94C747.588 93.97 746.763 93.955 745.863 93.955C744.963 93.955 744.108 94 743.298 94.09C742.488 94.18 741.618 94.225 740.688 94.225ZM751.533 81.085H757.383C757.833 81.085 758.058 80.98 758.058 80.77C758.058 80.68 758.043 80.605 758.013 80.545C758.013 80.485 757.998 80.41 757.968 80.32L754.953 70.15C754.863 69.82 754.773 69.655 754.683 69.655C754.623 69.655 754.518 69.82 754.368 70.15L750.813 80.32C750.753 80.44 750.723 80.56 750.723 80.68C750.723 80.83 750.798 80.935 750.948 80.995C751.128 81.055 751.323 81.085 751.533 81.085Z" fill="white"/>
</svg>
