<svg width="318" height="291" viewBox="0 0 318 291" fill="none" xmlns="http://www.w3.org/2000/svg">
<path fill-rule="evenodd" clip-rule="evenodd" d="M149.82 1.67748C145.979 3.57048 141.397 10.3415 139.59 16.7965C138.656 20.1325 138.601 24.1465 139.364 33.3395C140.088 42.0575 140.063 45.6885 139.275 46.2275C138.496 46.7605 138.53 47.2045 139.394 47.7645C140.062 48.1975 141.131 51.0105 141.77 54.0145C143.415 61.7535 148.702 71.5605 154.683 77.9675C161.573 85.3475 165.035 90.7645 168.894 100.204C172.977 110.191 173.735 108.555 170.188 97.4145C167.998 90.5375 167.627 87.9765 168.202 83.7165C169.127 76.8625 169.333 76.5305 177.7 68.4145C187.305 59.0965 189.927 54.4675 190.649 45.5505L191.222 38.4775L194.486 43.4775C200.367 52.4885 202.88 65.1205 200.766 75.0435C199.272 82.0595 193.822 90.2335 187.942 94.2795C185.386 96.0385 181.593 98.9815 179.513 100.819L175.732 104.162L177.199 99.2235C178.005 96.5065 179.964 91.4025 181.551 87.8805C184.225 81.9475 187.186 71.1505 186.364 70.3295C186.168 70.1335 185.234 72.7585 184.287 76.1625C183.341 79.5665 180.962 85.7555 179.001 89.9145C174.904 98.6075 173.564 109.492 175.597 117.567C176.242 120.126 176.608 122.381 176.412 122.577C176.216 122.774 174.598 119.371 172.817 115.015C170.016 108.163 167.768 105.032 156.145 91.7865C141.44 75.0305 140.329 72.9545 139.19 60.1235C138.831 56.0785 138.131 51.8035 137.633 50.6235C136.482 47.8905 137.482 65.4435 138.679 68.9775C139.145 70.3525 139.729 73.6085 139.978 76.2125C140.493 81.6065 143.744 88.7505 149.92 98.0575C152.262 101.588 154.972 106.052 155.942 107.977C157.687 111.441 157.7 111.446 157.129 108.477C156.812 106.827 154.286 102.007 151.515 97.7665C146.941 90.7645 141.023 78.3005 141.87 77.4535C142.059 77.2645 144.906 80.5605 148.196 84.7775C151.487 88.9955 157.329 95.8395 161.18 99.9875C166.542 105.763 168.875 109.255 171.149 114.903C172.782 118.959 175.369 124.251 176.899 126.662C178.428 129.073 179.679 131.339 179.679 131.697C179.679 132.055 180.656 133.388 181.85 134.659C183.043 135.929 183.749 137.24 183.418 137.571C183.088 137.902 178.398 136.163 172.998 133.706C167.597 131.25 160.704 128.442 157.679 127.467C151.126 125.355 145.538 120.017 142.061 112.551C140.762 109.76 139.694 108.054 139.689 108.759C139.671 111.149 142.637 117.136 145.848 121.191C148.952 125.109 148.974 125.207 146.613 124.491C141.056 122.809 137.767 120.619 131.92 114.71L125.753 108.477L124.847 100.477C123.948 92.5435 123.94 92.5255 123.81 98.2825L123.679 104.088L118.672 99.7825C114.872 96.5145 112.295 92.8515 107.975 84.5775C103.706 76.4015 101.343 73.0275 98.5188 71.0775C91.3988 66.1595 95.0488 66.3815 106.844 71.5825C115.844 75.5515 117.416 76.7065 121.691 82.4935C124.026 85.6545 127.754 88.9825 131.338 91.1075C135.484 93.5645 138.355 96.2915 141.23 100.501C144.087 104.683 148.948 109.313 157.712 116.201C171.244 126.836 178.679 132.331 178.679 131.695C178.679 131.472 175.012 128.195 170.529 124.412C166.047 120.63 161.884 117.058 161.279 116.475C160.674 115.892 157.354 113.255 153.902 110.617C150.45 107.978 145.892 103.492 143.775 100.648C139.17 94.4645 136.68 92.1445 130.572 88.3435C128.039 86.7675 123.968 83.0105 121.527 79.9955C118.05 75.7025 115.363 73.6715 109.133 70.6295C99.0378 65.7005 94.6608 64.9955 91.8178 67.8385C89.8608 69.7955 89.7518 70.7745 90.1408 82.9335C90.3978 90.9625 90.1748 96.1705 89.5588 96.5515C88.2058 97.3875 89.3288 102.01 92.7198 109.569C95.2218 115.145 98.0718 118.805 110.2 132.017C112.584 134.614 117.677 137.449 129.322 142.663C138.051 146.571 147.204 150.311 149.661 150.972C158.327 153.306 170.45 149.603 176.09 142.901C180.063 138.179 178.418 138.156 173.076 142.858C168.283 147.078 160.987 149.986 155.247 149.966C150.257 149.949 137.695 145.628 138.959 144.364C139.206 144.116 143.761 142.861 149.081 141.575C158.12 139.39 161.888 137.968 158.596 137.984C156.283 137.995 140.697 141.897 138.705 142.963C137.277 143.727 134.275 142.73 125.272 138.5C118.896 135.504 113.679 132.606 113.679 132.06C113.679 131.515 116.492 130.901 119.929 130.696C125.437 130.368 125.235 130.321 118.229 130.303L110.278 130.283L106.729 125.972L103.179 121.66L119.185 122.25C134.601 122.819 135.736 123.01 149.997 127.437C163.123 131.513 169.494 133.994 188.008 142.242C193.54 144.706 197.352 148.651 200.081 154.736C201.127 157.069 202.589 158.977 203.331 158.977C205.155 158.977 205.106 158.765 201.72 152.059C200.093 148.835 197.331 145.135 195.583 143.837C189.831 139.567 184.679 133.927 184.679 131.901C184.679 130.704 188.08 126.667 193.206 121.778C203.313 112.141 209.31 103.621 210.21 97.6215C211.187 91.1015 207.964 68.1865 205.603 64.8705C204.539 63.3765 202.721 59.0765 201.563 55.3155C200.405 51.5545 198.77 47.1435 197.931 45.5135C195.584 40.9515 186.887 29.9315 182.12 25.4775C179.765 23.2775 177.529 20.2405 177.15 18.7275C176.509 16.1655 174.679 14.8215 174.679 16.9125C174.679 19.8975 177.529 24.0435 183.357 29.5375L189.956 35.7585L189.474 43.2755C189.117 48.8365 188.365 51.8295 186.585 54.7785C183.244 60.3135 168.679 75.5445 168.679 73.5035C168.679 69.8445 171.151 62.0145 174.808 54.0895C176.937 49.4755 178.669 45.4255 178.656 45.0895C178.618 44.0505 171.585 57.2705 170.203 60.9775L168.9 64.4775L167.738 61.5265C167.098 59.9035 165.849 55.9635 164.962 52.7705L163.348 46.9665L166.385 42.7215C174.9 30.8215 174.908 30.8035 174.361 25.3405C173.656 18.2955 171.451 14.5145 166.282 11.4845C163.714 9.98048 161.379 7.66648 160.649 5.90648C159.413 2.92048 156.179 -0.0435161 154.206 0.000483887C153.641 0.0124839 151.668 0.767484 149.82 1.67748ZM158.504 6.32948C159.87 9.23548 161.57 11.1035 163.619 11.9525C168.034 13.7815 172.643 19.4215 172.862 23.2625C173.216 29.4795 172.803 30.7245 167.897 38.2405L162.949 45.8205L161.814 42.0335C161.19 39.9495 160.593 34.0225 160.488 28.8615L160.296 19.4775L159.738 28.9505L159.179 38.4235L155.921 34.4635C154.129 32.2845 151.936 28.4715 151.047 25.9895C150.158 23.5085 148.304 19.1475 146.928 16.3005C143.88 9.99449 144.418 6.71648 148.956 3.95048C154.08 0.825483 156.161 1.34448 158.504 6.32948ZM147.111 21.5245C149.228 26.8235 152.434 32.6235 154.849 35.5245C158.975 40.4825 161.861 46.0035 163.096 51.3015L163.754 54.1255L159.036 50.8015C147.86 42.9285 145.157 41.1705 144.787 41.5375C144.198 42.1245 148.309 45.3585 156.88 51.0505C167.114 57.8475 168.138 60.5715 166.984 77.9265L166.179 90.0285L161.911 84.5555C158.199 79.7945 157.518 78.1315 156.68 71.7795C156.151 67.7635 155.261 63.1275 154.702 61.4775L153.687 58.4775L154.169 61.4775C155.672 70.8325 155.951 77.2635 154.822 76.5665C152.659 75.2295 144.844 60.8345 143.726 56.1285C140.587 42.9105 139.743 16.9195 142.318 12.7525C143.102 11.4835 143.084 11.4495 147.111 21.5245ZM205.283 66.1455C206.025 67.3455 207.276 77.6125 208.329 91.1225C208.85 97.8225 208.639 99.3395 206.617 103.387C204.513 107.601 186.083 127.715 185.167 126.798C184.952 126.583 185.466 123.068 186.311 118.988C187.823 111.681 190.679 104.713 192.665 103.486C193.223 103.141 193.679 102.324 193.679 101.671C193.679 101.018 192.123 102.672 190.221 105.347C187.775 108.787 186.3 112.443 185.178 117.844C184.306 122.042 183.257 126.827 182.847 128.477L182.102 131.477L179.669 126.477C176.922 120.833 175.846 110.193 177.57 105.723C178.155 104.208 180.755 101.508 183.348 99.7235C196.789 90.4715 202.012 82.3225 202.893 69.2285C203.18 64.9595 203.943 63.9765 205.283 66.1455ZM97.8398 71.9585C100.107 73.8265 103.223 78.4015 106.186 84.2085C109.408 90.5245 112.85 95.4595 116.991 99.7005C120.333 103.122 122.836 106.154 122.553 106.437C121.523 107.466 101.113 102.935 98.6788 101.136C97.3038 100.12 95.1738 97.5315 93.9448 95.3835C92.0008 91.9835 91.7098 90.0185 91.6948 80.2275C91.6768 67.5625 91.9918 67.1385 97.8398 71.9585ZM102.039 104.461C103.766 105.17 108.554 106.305 112.679 106.981C121.749 108.47 122.753 108.98 130.488 116.028L136.58 121.579L121.379 121.158C100.871 120.59 100.209 120.328 95.4388 110.878C93.3288 106.699 91.3208 101.524 90.9768 99.3785L90.3508 95.4775L94.6248 99.3245C96.9758 101.44 100.313 103.752 102.039 104.461Z" fill="white"/>
<path d="M1.755 218.135C1.545 218.135 1.335 218.09 1.125 218C0.945 217.88 0.855 217.715 0.855 217.505C0.855 217.025 1.17 216.71 1.8 216.56C2.85 216.32 3.585 216.02 4.005 215.66C4.455 215.27 4.68 214.595 4.68 213.635V193.205C4.68 192.245 4.485 191.57 4.095 191.18C3.705 190.76 2.97 190.415 1.89 190.145C1.26 189.995 0.945 189.68 0.945 189.2C0.945 188.99 1.035 188.825 1.215 188.705C1.425 188.585 1.635 188.525 1.845 188.525C2.535 188.525 3.24 188.54 3.96 188.57C4.68 188.6 5.385 188.645 6.075 188.705C6.765 188.735 7.41 188.75 8.01 188.75C9.75 188.75 11.415 188.75 13.005 188.75C14.625 188.75 16.26 188.75 17.91 188.75C19.5 188.75 21.075 188.75 22.635 188.75C24.225 188.75 25.86 188.75 27.54 188.75C28.14 188.75 28.785 188.735 29.475 188.705C30.165 188.645 30.87 188.6 31.59 188.57C32.31 188.54 33.015 188.525 33.705 188.525C33.945 188.525 34.155 188.585 34.335 188.705C34.515 188.825 34.605 188.99 34.605 189.2C34.605 189.68 34.29 189.995 33.66 190.145C32.58 190.415 31.845 190.76 31.455 191.18C31.065 191.57 30.87 192.245 30.87 193.205V213.635C30.87 214.595 31.08 215.27 31.5 215.66C31.95 216.02 32.685 216.32 33.705 216.56C34.365 216.71 34.695 217.025 34.695 217.505C34.695 217.715 34.59 217.88 34.38 218C34.2 218.09 34.005 218.135 33.795 218.135C33.165 218.135 32.475 218.105 31.725 218.045C31.005 218.015 30.27 217.985 29.52 217.955C28.8 217.925 28.14 217.91 27.54 217.91C26.94 217.91 26.235 217.925 25.425 217.955C24.615 217.985 23.805 218.015 22.995 218.045C22.185 218.105 21.45 218.135 20.79 218.135C20.52 218.135 20.31 218.075 20.16 217.955C20.01 217.835 19.935 217.67 19.935 217.46C19.935 217.19 20.01 216.995 20.16 216.875C20.34 216.755 20.595 216.65 20.925 216.56C22.095 216.26 22.875 215.9 23.265 215.48C23.685 215.06 23.91 214.43 23.94 213.59C24.06 210.02 24.135 206.405 24.165 202.745C24.195 199.085 24.12 195.47 23.94 191.9C23.94 191.69 23.895 191.54 23.805 191.45C23.715 191.33 23.565 191.255 23.355 191.225C22.695 191.165 22.05 191.12 21.42 191.09C20.82 191.06 20.22 191.045 19.62 191.045C19.02 191.015 18.405 191 17.775 191C16.875 191 15.96 191.03 15.03 191.09C14.13 191.12 13.2 191.165 12.24 191.225C11.85 191.255 11.64 191.495 11.61 191.945C11.28 195.455 11.145 199.055 11.205 202.745C11.265 206.405 11.4 210.02 11.61 213.59C11.64 214.43 11.85 215.06 12.24 215.48C12.66 215.9 13.455 216.26 14.625 216.56C14.925 216.65 15.165 216.755 15.345 216.875C15.525 216.995 15.615 217.19 15.615 217.46C15.615 217.67 15.54 217.835 15.39 217.955C15.24 218.075 15.03 218.135 14.76 218.135C14.1 218.135 13.365 218.105 12.555 218.045C11.745 218.015 10.95 217.985 10.17 217.955C9.42 217.925 8.73 217.91 8.1 217.91C7.47 217.91 6.78 217.925 6.03 217.955C5.28 217.985 4.53 218.015 3.78 218.045C3.03 218.105 2.355 218.135 1.755 218.135ZM37.2168 218.135C36.9768 218.135 36.7668 218.09 36.5868 218C36.4068 217.88 36.3168 217.715 36.3168 217.505C36.3168 217.025 36.6318 216.71 37.2618 216.56C38.4018 216.32 39.1818 216.02 39.6018 215.66C40.0518 215.27 40.2768 214.58 40.2768 213.59V193.43C40.2768 192.41 40.0968 191.675 39.7368 191.225C39.3768 190.745 38.6568 190.385 37.5768 190.145C37.1868 190.055 36.9168 189.935 36.7668 189.785C36.6168 189.605 36.5418 189.41 36.5418 189.2C36.5418 189.02 36.6318 188.87 36.8118 188.75C36.9918 188.6 37.2318 188.525 37.5318 188.525C38.2218 188.525 38.9118 188.54 39.6018 188.57C40.3218 188.6 41.0118 188.645 41.6718 188.705C42.3618 188.735 43.0068 188.75 43.6068 188.75C44.3268 188.75 44.9568 188.72 45.4968 188.66C46.0668 188.57 46.6818 188.495 47.3418 188.435C48.0318 188.345 48.8568 188.3 49.8168 188.3C53.4768 188.3 56.3718 189.08 58.5018 190.64C60.6618 192.17 61.7418 194.285 61.7418 196.985C61.7418 198.875 61.3368 200.615 60.5268 202.205C59.7468 203.795 58.5468 205.085 56.9268 206.075C55.3368 207.035 53.3118 207.515 50.8518 207.515C50.0718 207.515 49.4718 207.395 49.0518 207.155C48.6618 206.915 48.4668 206.63 48.4668 206.3C48.4668 206.09 48.5568 205.925 48.7368 205.805C48.9468 205.655 49.1268 205.58 49.2768 205.58C49.6068 205.58 49.8918 205.625 50.1318 205.715C50.3718 205.775 50.7018 205.805 51.1218 205.805C52.3818 205.805 53.3268 205.1 53.9568 203.69C54.6168 202.28 54.9468 200.42 54.9468 198.11C54.9468 195.35 54.4968 193.355 53.5968 192.125C52.6968 190.895 51.4368 190.28 49.8168 190.28C48.9768 190.28 48.3318 190.475 47.8818 190.865C47.4618 191.225 47.2518 191.795 47.2518 192.575L47.2068 213.5C47.2068 214.46 47.4618 215.15 47.9718 215.57C48.4818 215.96 49.3668 216.29 50.6268 216.56C50.9568 216.62 51.1968 216.725 51.3468 216.875C51.5268 216.995 51.6168 217.19 51.6168 217.46C51.6168 217.67 51.5418 217.835 51.3918 217.955C51.2418 218.075 51.0318 218.135 50.7618 218.135C50.1018 218.135 49.3368 218.105 48.4668 218.045C47.6268 218.015 46.7868 217.985 45.9468 217.955C45.1068 217.925 44.3868 217.91 43.7868 217.91C43.1568 217.91 42.4668 217.925 41.7168 217.955C40.9668 217.985 40.1868 218.015 39.3768 218.045C38.5968 218.105 37.8768 218.135 37.2168 218.135ZM60.1843 218.225C59.8543 218.225 59.5693 218.165 59.3293 218.045C59.1193 217.955 59.0143 217.775 59.0143 217.505C59.0143 217.205 59.1043 216.995 59.2843 216.875C59.4943 216.725 59.7643 216.605 60.0943 216.515C60.9643 216.275 61.7143 215.9 62.3443 215.39C63.0043 214.88 63.4993 214.25 63.8293 213.5C64.5793 211.82 65.2843 210.17 65.9443 208.55C66.6043 206.9 67.2493 205.28 67.8793 203.69C68.5093 202.07 69.1393 200.435 69.7693 198.785C70.3993 197.105 71.0293 195.41 71.6593 193.7C72.1093 192.47 72.3943 191.585 72.5143 191.045C72.6343 190.475 72.7243 190.145 72.7843 190.055C73.3243 189.905 73.8343 189.77 74.3143 189.65C74.7943 189.53 75.3043 189.365 75.8443 189.155C76.3843 188.945 76.8343 188.675 77.1943 188.345C77.5843 188.015 77.8693 187.76 78.0493 187.58C78.1693 187.49 78.2893 187.445 78.4093 187.445C78.5293 187.415 78.6493 187.505 78.7693 187.715C78.8593 187.895 78.9343 188.09 78.9943 188.3C79.0843 188.48 79.1593 188.69 79.2193 188.93C79.8493 190.94 80.4943 192.995 81.1543 195.095C81.8143 197.165 82.4743 199.235 83.1343 201.305C83.8243 203.375 84.4993 205.43 85.1593 207.47C85.8193 209.48 86.4643 211.445 87.0943 213.365C87.2743 213.965 87.5443 214.475 87.9043 214.895C88.2943 215.315 88.7293 215.645 89.2093 215.885C89.6893 216.125 90.2293 216.335 90.8293 216.515C91.1593 216.605 91.4143 216.725 91.5943 216.875C91.8043 216.995 91.9093 217.19 91.9093 217.46C91.9093 217.67 91.8193 217.835 91.6393 217.955C91.4593 218.075 91.2493 218.135 91.0093 218.135C90.4093 218.135 89.6593 218.105 88.7593 218.045C87.8893 218.015 87.0043 217.985 86.1043 217.955C85.2043 217.925 84.4093 217.91 83.7193 217.91C83.1493 217.91 82.4443 217.925 81.6043 217.955C80.7943 217.985 79.9693 218.015 79.1293 218.045C78.2893 218.075 77.5693 218.09 76.9693 218.09C76.6993 218.09 76.4593 218.045 76.2493 217.955C76.0693 217.835 75.9793 217.67 75.9793 217.46C75.9793 217.19 76.0843 216.98 76.2943 216.83C76.5043 216.68 76.7593 216.575 77.0593 216.515C78.1693 216.275 78.9793 215.96 79.4893 215.57C79.9993 215.18 80.1643 214.595 79.9843 213.815C79.8643 213.245 79.7143 212.645 79.5343 212.015C79.3543 211.385 79.1743 210.755 78.9943 210.125C78.8443 209.465 78.6793 208.835 78.4993 208.235C78.4393 207.995 78.3643 207.815 78.2743 207.695C78.1843 207.575 78.0043 207.515 77.7343 207.515H69.7693C69.5593 207.515 69.3943 207.575 69.2743 207.695C69.1543 207.815 69.0643 208.01 69.0043 208.28C68.8843 208.7 68.7493 209.12 68.5993 209.54C68.4493 209.96 68.2993 210.38 68.1493 210.8C68.0293 211.22 67.9093 211.64 67.7893 212.06C67.6693 212.48 67.5493 212.885 67.4293 213.275C67.2193 214.175 67.3093 214.865 67.6993 215.345C68.0893 215.825 68.9293 216.215 70.2193 216.515C70.9393 216.665 71.2993 216.98 71.2993 217.46C71.2993 217.67 71.2093 217.835 71.0293 217.955C70.8793 218.045 70.6243 218.09 70.2643 218.09C69.3943 218.09 68.5843 218.06 67.8343 218C67.0843 217.97 66.2593 217.955 65.3593 217.955C64.4593 217.955 63.6043 218 62.7943 218.09C61.9843 218.18 61.1143 218.225 60.1843 218.225ZM71.0293 205.085H76.8793C77.3293 205.085 77.5543 204.98 77.5543 204.77C77.5543 204.68 77.5393 204.605 77.5093 204.545C77.5093 204.485 77.4943 204.41 77.4643 204.32L74.4493 194.15C74.3593 193.82 74.2693 193.655 74.1793 193.655C74.1193 193.655 74.0143 193.82 73.8643 194.15L70.3093 204.32C70.2493 204.44 70.2193 204.56 70.2193 204.68C70.2193 204.83 70.2943 204.935 70.4443 204.995C70.6243 205.055 70.8193 205.085 71.0293 205.085ZM92.6757 218.225C92.4057 218.225 92.1807 218.15 92.0007 218C91.8507 217.88 91.7757 217.73 91.7757 217.55C91.7757 217.1 92.1057 216.785 92.7657 216.605C93.7857 216.335 94.5057 216.02 94.9257 215.66C95.3757 215.3 95.6007 214.64 95.6007 213.68V193.205C95.6007 192.245 95.4057 191.555 95.0157 191.135C94.6257 190.685 93.9057 190.355 92.8557 190.145C92.4657 190.055 92.1957 189.935 92.0457 189.785C91.8957 189.605 91.8207 189.41 91.8207 189.2C91.8207 189.02 91.9107 188.87 92.0907 188.75C92.2707 188.6 92.4957 188.525 92.7657 188.525C93.7257 188.525 94.5207 188.555 95.1507 188.615C95.7807 188.675 96.3657 188.735 96.9057 188.795C97.4757 188.825 98.1357 188.84 98.8857 188.84C99.5757 188.84 100.206 188.81 100.776 188.75C101.346 188.66 101.976 188.585 102.666 188.525C103.386 188.465 104.256 188.435 105.276 188.435C108.846 188.435 111.546 188.945 113.376 189.965C115.236 190.955 116.166 192.68 116.166 195.14C116.166 196.07 115.956 196.955 115.536 197.795C115.116 198.605 114.576 199.28 113.916 199.82C113.436 200.24 112.926 200.585 112.386 200.855C111.876 201.125 111.291 201.35 110.631 201.53C110.511 201.56 110.451 201.635 110.451 201.755C110.451 201.875 110.511 201.95 110.631 201.98C111.411 202.16 112.221 202.4 113.061 202.7C113.901 202.97 114.681 203.375 115.401 203.915C116.151 204.455 116.736 205.16 117.156 206.03C117.606 206.87 117.831 207.95 117.831 209.27C117.831 210.95 117.561 212.285 117.021 213.275C116.511 214.235 115.881 214.97 115.131 215.48C114.411 215.99 113.736 216.41 113.106 216.74C112.116 217.22 110.991 217.58 109.731 217.82C108.471 218.06 106.971 218.18 105.231 218.18C104.241 218.18 103.236 218.15 102.216 218.09C101.226 218.03 100.176 218 99.0657 218C98.4357 218 97.7457 218.015 96.9957 218.045C96.2457 218.075 95.4957 218.105 94.7457 218.135C94.0257 218.195 93.3357 218.225 92.6757 218.225ZM105.276 215.705C106.176 215.705 107.016 215.435 107.796 214.895C108.606 214.355 109.236 213.635 109.686 212.735C110.166 211.805 110.406 210.755 110.406 209.585C110.406 208.565 110.271 207.71 110.001 207.02C109.761 206.33 109.461 205.775 109.101 205.355C108.771 204.935 108.456 204.62 108.156 204.41C107.916 204.2 107.481 203.99 106.851 203.78C106.251 203.54 105.501 203.42 104.601 203.42C104.091 203.42 103.611 203.555 103.161 203.825C102.741 204.065 102.531 204.425 102.531 204.905V212.825C102.531 213.815 102.771 214.55 103.251 215.03C103.731 215.48 104.406 215.705 105.276 215.705ZM104.331 201.395C105.051 201.395 105.711 201.32 106.311 201.17C106.911 200.99 107.526 200.66 108.156 200.18C108.366 199.97 108.651 199.55 109.011 198.92C109.401 198.26 109.596 197.315 109.596 196.085C109.596 194.825 109.431 193.775 109.101 192.935C108.771 192.095 108.261 191.465 107.571 191.045C106.911 190.625 106.026 190.415 104.916 190.415C104.076 190.415 103.461 190.58 103.071 190.91C102.711 191.21 102.531 191.675 102.531 192.305V199.82C102.531 200.42 102.741 200.84 103.161 201.08C103.581 201.29 103.971 201.395 104.331 201.395ZM120.935 218.135C120.725 218.135 120.515 218.09 120.305 218C120.125 217.88 120.035 217.715 120.035 217.505C120.035 217.025 120.35 216.71 120.98 216.56C122.12 216.32 122.885 216.02 123.275 215.66C123.695 215.27 123.905 214.595 123.905 213.635V193.205C123.905 192.215 123.725 191.525 123.365 191.135C123.005 190.745 122.24 190.415 121.07 190.145C120.41 189.995 120.08 189.68 120.08 189.2C120.08 188.99 120.17 188.825 120.35 188.705C120.56 188.585 120.77 188.525 120.98 188.525C121.67 188.525 122.39 188.54 123.14 188.57C123.92 188.6 124.67 188.645 125.39 188.705C126.11 188.735 126.77 188.75 127.37 188.75C127.97 188.75 128.645 188.735 129.395 188.705C130.175 188.675 130.955 188.645 131.735 188.615C132.545 188.585 133.28 188.57 133.94 188.57C134.21 188.57 134.405 188.63 134.525 188.75C134.675 188.84 134.75 188.99 134.75 189.2C134.75 189.5 134.66 189.71 134.48 189.83C134.33 189.95 134.105 190.055 133.805 190.145C132.575 190.475 131.765 190.85 131.375 191.27C131.015 191.69 130.835 192.35 130.835 193.25V208.505C130.835 208.925 130.88 209.15 130.97 209.18C131.06 209.21 131.24 209.09 131.51 208.82L144.515 194.51C144.815 194.21 144.965 193.88 144.965 193.52V193.07C144.935 192.17 144.71 191.525 144.29 191.135C143.9 190.745 143.135 190.415 141.995 190.145C141.335 189.995 141.005 189.68 141.005 189.2C141.005 188.99 141.095 188.825 141.275 188.705C141.485 188.585 141.695 188.525 141.905 188.525C142.595 188.525 143.315 188.54 144.065 188.57C144.845 188.6 145.61 188.645 146.36 188.705C147.11 188.735 147.785 188.75 148.385 188.75C148.985 188.75 149.645 188.735 150.365 188.705C151.115 188.675 151.88 188.645 152.66 188.615C153.47 188.585 154.205 188.57 154.865 188.57C155.135 188.57 155.33 188.63 155.45 188.75C155.6 188.84 155.675 188.99 155.675 189.2C155.675 189.5 155.585 189.71 155.405 189.83C155.255 189.95 155.03 190.055 154.73 190.145C153.5 190.475 152.72 190.85 152.39 191.27C152.06 191.69 151.895 192.35 151.895 193.25V213.59C151.895 214.46 152.075 215.105 152.435 215.525C152.795 215.915 153.56 216.26 154.73 216.56C155.06 216.65 155.3 216.755 155.45 216.875C155.63 216.995 155.72 217.19 155.72 217.46C155.72 217.67 155.645 217.835 155.495 217.955C155.345 218.075 155.135 218.135 154.865 218.135C154.205 218.135 153.47 218.105 152.66 218.045C151.88 218.015 151.1 217.985 150.32 217.955C149.57 217.925 148.895 217.91 148.295 217.91C147.695 217.91 147.035 217.925 146.315 217.955C145.595 217.985 144.845 218.015 144.065 218.045C143.315 218.105 142.595 218.135 141.905 218.135C141.695 218.135 141.485 218.09 141.275 218C141.095 217.88 141.005 217.715 141.005 217.505C141.005 217.025 141.32 216.71 141.95 216.56C143.06 216.32 143.84 216.02 144.29 215.66C144.74 215.3 144.965 214.655 144.965 213.725V198.2C144.965 197.81 144.83 197.735 144.56 197.975L131.42 212.465C131.21 212.675 131.06 212.87 130.97 213.05C130.88 213.2 130.835 213.41 130.835 213.68C130.835 214.55 131.06 215.18 131.51 215.57C131.96 215.93 132.755 216.26 133.895 216.56C134.195 216.65 134.42 216.755 134.57 216.875C134.75 216.995 134.84 217.19 134.84 217.46C134.84 217.67 134.765 217.835 134.615 217.955C134.495 218.075 134.3 218.135 134.03 218.135C133.37 218.135 132.635 218.105 131.825 218.045C131.015 218.015 130.22 217.985 129.44 217.955C128.66 217.925 127.97 217.91 127.37 217.91C126.77 217.91 126.095 217.925 125.345 217.955C124.625 217.985 123.875 218.015 123.095 218.045C122.345 218.105 121.625 218.135 120.935 218.135ZM160.766 218.765C159.506 218.765 158.561 218.45 157.931 217.82C157.301 217.19 156.986 216.455 156.986 215.615C156.986 214.955 157.106 214.385 157.346 213.905C157.586 213.425 157.961 213.185 158.471 213.185C159.341 213.395 160.121 213.545 160.811 213.635C161.531 213.725 162.161 213.77 162.701 213.77C163.451 213.77 164.141 213.425 164.771 212.735C165.401 212.015 165.941 210.86 166.391 209.27C166.871 207.68 167.246 205.565 167.516 202.925C167.786 200.285 167.921 197.03 167.921 193.16C167.921 192.26 167.621 191.615 167.021 191.225C166.421 190.835 165.416 190.475 164.006 190.145C163.346 189.995 163.016 189.68 163.016 189.2C163.016 188.99 163.106 188.825 163.286 188.705C163.496 188.585 163.706 188.525 163.916 188.525C164.516 188.525 165.221 188.54 166.031 188.57C166.841 188.6 167.636 188.645 168.416 188.705C169.226 188.735 169.931 188.75 170.531 188.75C171.161 188.75 171.656 188.75 172.016 188.75C172.376 188.75 172.721 188.75 173.051 188.75C173.381 188.75 173.831 188.75 174.401 188.75C174.971 188.75 175.796 188.75 176.876 188.75C177.986 188.75 179.486 188.75 181.376 188.75C181.976 188.75 182.651 188.735 183.401 188.705C184.181 188.675 184.961 188.645 185.741 188.615C186.551 188.585 187.286 188.57 187.946 188.57C188.216 188.57 188.426 188.63 188.576 188.75C188.726 188.84 188.801 188.99 188.801 189.2C188.801 189.5 188.711 189.71 188.531 189.83C188.381 189.95 188.141 190.055 187.811 190.145C186.611 190.475 185.816 190.85 185.426 191.27C185.036 191.66 184.841 192.32 184.841 193.25V213.59C184.841 214.46 185.051 215.105 185.471 215.525C185.921 215.915 186.731 216.26 187.901 216.56C188.201 216.65 188.426 216.755 188.576 216.875C188.756 216.995 188.846 217.19 188.846 217.46C188.846 217.67 188.771 217.835 188.621 217.955C188.501 218.075 188.306 218.135 188.036 218.135C187.376 218.135 186.641 218.105 185.831 218.045C185.021 218.015 184.226 217.985 183.446 217.955C182.666 217.925 181.976 217.91 181.376 217.91C180.746 217.91 180.056 217.925 179.306 217.955C178.556 217.985 177.776 218.015 176.966 218.045C176.186 218.105 175.451 218.135 174.761 218.135C174.551 218.135 174.356 218.09 174.176 218C173.996 217.88 173.906 217.715 173.906 217.505C173.906 217.025 174.221 216.71 174.851 216.56C175.991 216.32 176.786 216.005 177.236 215.615C177.686 215.225 177.911 214.565 177.911 213.635V194.105C177.911 193.175 177.731 192.455 177.371 191.945C177.041 191.435 176.321 191.18 175.211 191.18H172.871C172.001 191.18 171.401 191.375 171.071 191.765C170.741 192.125 170.576 192.65 170.576 193.34C170.576 197.63 170.351 201.26 169.901 204.23C169.451 207.2 168.866 209.645 168.146 211.565C167.426 213.485 166.631 214.97 165.761 216.02C164.891 217.04 164.006 217.745 163.106 218.135C162.236 218.555 161.456 218.765 160.766 218.765ZM191.601 218.225C191.301 218.225 191.061 218.15 190.881 218C190.731 217.88 190.656 217.73 190.656 217.55C190.656 217.1 190.986 216.785 191.646 216.605C192.666 216.335 193.386 216.02 193.806 215.66C194.256 215.3 194.481 214.64 194.481 213.68V193.205C194.481 192.245 194.286 191.57 193.896 191.18C193.506 190.76 192.711 190.415 191.511 190.145C190.881 189.995 190.566 189.68 190.566 189.2C190.566 188.99 190.656 188.825 190.836 188.705C191.016 188.585 191.211 188.525 191.421 188.525C192.111 188.525 192.846 188.54 193.626 188.57C194.406 188.6 195.156 188.645 195.876 188.705C196.626 188.735 197.316 188.75 197.946 188.75C198.546 188.75 199.221 188.735 199.971 188.705C200.751 188.675 201.531 188.645 202.311 188.615C203.121 188.585 203.856 188.57 204.516 188.57C204.786 188.57 204.996 188.63 205.146 188.75C205.296 188.84 205.371 188.99 205.371 189.2C205.371 189.5 205.281 189.71 205.101 189.83C204.951 189.95 204.711 190.055 204.381 190.145C203.181 190.475 202.371 190.85 201.951 191.27C201.561 191.66 201.366 192.32 201.366 193.25V199.865C201.366 200.855 201.831 201.35 202.761 201.35C202.821 201.35 202.881 201.35 202.941 201.35C203.031 201.35 203.121 201.335 203.211 201.305C203.601 201.245 204.141 201.17 204.831 201.08C205.521 200.96 206.256 200.9 207.036 200.9C209.856 200.9 212.091 201.62 213.741 203.06C215.421 204.5 216.261 206.51 216.261 209.09C216.261 210.8 215.991 212.15 215.451 213.14C214.911 214.13 214.281 214.88 213.561 215.39C212.841 215.9 212.196 216.32 211.626 216.65C210.696 217.19 209.646 217.58 208.476 217.82C207.336 218.06 206.001 218.18 204.471 218.18C204.291 218.18 203.991 218.165 203.571 218.135C203.151 218.105 202.506 218.075 201.636 218.045C200.796 218.015 199.566 218 197.946 218C197.316 218 196.626 218.015 195.876 218.045C195.156 218.075 194.421 218.105 193.671 218.135C192.921 218.195 192.231 218.225 191.601 218.225ZM203.841 216.38C204.681 216.38 205.476 216.08 206.226 215.48C206.976 214.85 207.591 214.01 208.071 212.96C208.551 211.88 208.791 210.665 208.791 209.315C208.791 208.235 208.656 207.335 208.386 206.615C208.146 205.895 207.831 205.325 207.441 204.905C207.081 204.455 206.751 204.125 206.451 203.915C206.181 203.735 205.791 203.525 205.281 203.285C204.771 203.045 204.111 202.925 203.301 202.925C203.121 202.925 202.926 202.94 202.716 202.97C202.536 202.97 202.386 203.015 202.266 203.105C201.996 203.165 201.786 203.3 201.636 203.51C201.486 203.72 201.411 204.02 201.411 204.41V213.5C201.411 213.92 201.441 214.31 201.501 214.67C201.591 215.03 201.741 215.33 201.951 215.57C202.191 215.81 202.461 216.005 202.761 216.155C203.091 216.305 203.451 216.38 203.841 216.38ZM219.109 218.135C218.899 218.135 218.689 218.09 218.479 218C218.299 217.88 218.209 217.715 218.209 217.505C218.209 217.025 218.524 216.71 219.154 216.56C220.204 216.32 220.909 216.02 221.269 215.66C221.659 215.27 221.854 214.595 221.854 213.635V193.205C221.854 192.215 221.674 191.525 221.314 191.135C220.984 190.745 220.294 190.415 219.244 190.145C218.584 189.995 218.254 189.68 218.254 189.2C218.254 188.99 218.344 188.825 218.524 188.705C218.734 188.585 218.944 188.525 219.154 188.525C219.844 188.525 220.549 188.54 221.269 188.57C221.989 188.6 222.694 188.645 223.384 188.705C224.074 188.735 224.719 188.75 225.319 188.75C225.919 188.75 226.594 188.735 227.344 188.705C228.124 188.675 228.904 188.645 229.684 188.615C230.494 188.585 231.229 188.57 231.889 188.57C232.429 188.57 232.699 188.795 232.699 189.245C232.699 189.515 232.609 189.71 232.429 189.83C232.279 189.95 232.054 190.055 231.754 190.145C230.554 190.475 229.759 190.85 229.369 191.27C228.979 191.69 228.784 192.35 228.784 193.25V201.35C228.784 201.59 228.844 201.755 228.964 201.845C229.114 201.935 229.294 201.98 229.504 201.98H241.384C241.774 201.98 241.969 201.77 241.969 201.35V193.25C241.969 192.35 241.774 191.69 241.384 191.27C241.024 190.85 240.244 190.475 239.044 190.145C238.714 190.055 238.459 189.95 238.279 189.83C238.129 189.71 238.054 189.515 238.054 189.245C238.054 188.795 238.339 188.57 238.909 188.57C239.569 188.57 240.304 188.585 241.114 188.615C241.924 188.645 242.719 188.675 243.499 188.705C244.279 188.735 244.969 188.75 245.569 188.75C246.139 188.75 246.754 188.735 247.414 188.705C248.104 188.645 248.794 188.6 249.484 188.57C250.204 188.54 250.909 188.525 251.599 188.525C251.839 188.525 252.049 188.585 252.229 188.705C252.409 188.825 252.499 188.99 252.499 189.2C252.499 189.68 252.184 189.995 251.554 190.145C250.474 190.415 249.754 190.76 249.394 191.18C249.064 191.57 248.899 192.245 248.899 193.205V213.59C248.899 214.58 249.079 215.27 249.439 215.66C249.829 216.02 250.534 216.32 251.554 216.56C252.184 216.71 252.499 217.025 252.499 217.505C252.499 217.715 252.409 217.88 252.229 218C252.049 218.09 251.854 218.135 251.644 218.135C251.014 218.135 250.339 218.105 249.619 218.045C248.899 218.015 248.179 217.985 247.459 217.955C246.739 217.925 246.079 217.91 245.479 217.91C244.879 217.91 244.189 217.925 243.409 217.955C242.659 217.985 241.879 218.015 241.069 218.045C240.259 218.105 239.524 218.135 238.864 218.135C238.624 218.135 238.429 218.075 238.279 217.955C238.129 217.835 238.054 217.67 238.054 217.46C238.054 217.16 238.129 216.965 238.279 216.875C238.459 216.755 238.699 216.65 238.999 216.56C240.139 216.26 240.919 215.915 241.339 215.525C241.759 215.105 241.969 214.46 241.969 213.59V205.175C241.969 204.935 241.924 204.755 241.834 204.635C241.774 204.485 241.639 204.41 241.429 204.41H229.414C228.994 204.41 228.784 204.65 228.784 205.13V213.545C228.784 214.385 229.009 215.03 229.459 215.48C229.909 215.9 230.704 216.26 231.844 216.56C232.144 216.65 232.369 216.755 232.519 216.875C232.699 216.965 232.789 217.16 232.789 217.46C232.789 217.67 232.714 217.835 232.564 217.955C232.444 218.075 232.249 218.135 231.979 218.135C231.319 218.135 230.584 218.105 229.774 218.045C228.964 218.015 228.169 217.985 227.389 217.955C226.609 217.925 225.919 217.91 225.319 217.91C224.719 217.91 224.044 217.925 223.294 217.955C222.574 217.985 221.839 218.015 221.089 218.045C220.369 218.105 219.709 218.135 219.109 218.135ZM254.379 218.225C254.049 218.225 253.764 218.165 253.524 218.045C253.314 217.955 253.209 217.775 253.209 217.505C253.209 217.205 253.299 216.995 253.479 216.875C253.689 216.725 253.959 216.605 254.289 216.515C255.159 216.275 255.909 215.9 256.539 215.39C257.199 214.88 257.694 214.25 258.024 213.5C258.774 211.82 259.479 210.17 260.139 208.55C260.799 206.9 261.444 205.28 262.074 203.69C262.704 202.07 263.334 200.435 263.964 198.785C264.594 197.105 265.224 195.41 265.854 193.7C266.304 192.47 266.589 191.585 266.709 191.045C266.829 190.475 266.919 190.145 266.979 190.055C267.519 189.905 268.029 189.77 268.509 189.65C268.989 189.53 269.499 189.365 270.039 189.155C270.579 188.945 271.029 188.675 271.389 188.345C271.779 188.015 272.064 187.76 272.244 187.58C272.364 187.49 272.484 187.445 272.604 187.445C272.724 187.415 272.844 187.505 272.964 187.715C273.054 187.895 273.129 188.09 273.189 188.3C273.279 188.48 273.354 188.69 273.414 188.93C274.044 190.94 274.689 192.995 275.349 195.095C276.009 197.165 276.669 199.235 277.329 201.305C278.019 203.375 278.694 205.43 279.354 207.47C280.014 209.48 280.659 211.445 281.289 213.365C281.469 213.965 281.739 214.475 282.099 214.895C282.489 215.315 282.924 215.645 283.404 215.885C283.884 216.125 284.424 216.335 285.024 216.515C285.354 216.605 285.609 216.725 285.789 216.875C285.999 216.995 286.104 217.19 286.104 217.46C286.104 217.67 286.014 217.835 285.834 217.955C285.654 218.075 285.444 218.135 285.204 218.135C284.604 218.135 283.854 218.105 282.954 218.045C282.084 218.015 281.199 217.985 280.299 217.955C279.399 217.925 278.604 217.91 277.914 217.91C277.344 217.91 276.639 217.925 275.799 217.955C274.989 217.985 274.164 218.015 273.324 218.045C272.484 218.075 271.764 218.09 271.164 218.09C270.894 218.09 270.654 218.045 270.444 217.955C270.264 217.835 270.174 217.67 270.174 217.46C270.174 217.19 270.279 216.98 270.489 216.83C270.699 216.68 270.954 216.575 271.254 216.515C272.364 216.275 273.174 215.96 273.684 215.57C274.194 215.18 274.359 214.595 274.179 213.815C274.059 213.245 273.909 212.645 273.729 212.015C273.549 211.385 273.369 210.755 273.189 210.125C273.039 209.465 272.874 208.835 272.694 208.235C272.634 207.995 272.559 207.815 272.469 207.695C272.379 207.575 272.199 207.515 271.929 207.515H263.964C263.754 207.515 263.589 207.575 263.469 207.695C263.349 207.815 263.259 208.01 263.199 208.28C263.079 208.7 262.944 209.12 262.794 209.54C262.644 209.96 262.494 210.38 262.344 210.8C262.224 211.22 262.104 211.64 261.984 212.06C261.864 212.48 261.744 212.885 261.624 213.275C261.414 214.175 261.504 214.865 261.894 215.345C262.284 215.825 263.124 216.215 264.414 216.515C265.134 216.665 265.494 216.98 265.494 217.46C265.494 217.67 265.404 217.835 265.224 217.955C265.074 218.045 264.819 218.09 264.459 218.09C263.589 218.09 262.779 218.06 262.029 218C261.279 217.97 260.454 217.955 259.554 217.955C258.654 217.955 257.799 218 256.989 218.09C256.179 218.18 255.309 218.225 254.379 218.225ZM265.224 205.085H271.074C271.524 205.085 271.749 204.98 271.749 204.77C271.749 204.68 271.734 204.605 271.704 204.545C271.704 204.485 271.689 204.41 271.659 204.32L268.644 194.15C268.554 193.82 268.464 193.655 268.374 193.655C268.314 193.655 268.209 193.82 268.059 194.15L264.504 204.32C264.444 204.44 264.414 204.56 264.414 204.68C264.414 204.83 264.489 204.935 264.639 204.995C264.819 205.055 265.014 205.085 265.224 205.085ZM290.411 218.675C289.271 218.675 288.311 218.585 287.531 218.405C286.781 218.225 286.211 218.015 285.821 217.775C285.701 217.715 285.596 217.61 285.506 217.46C285.386 217.31 285.326 217.175 285.326 217.055C285.326 216.875 285.401 216.71 285.551 216.56C285.671 216.38 285.821 216.29 286.001 216.29C287.081 216.29 288.011 216.02 288.791 215.48C289.601 214.94 290.321 214.22 290.951 213.32C291.611 212.39 292.256 211.385 292.886 210.305C293.696 208.895 294.596 207.605 295.586 206.435C296.576 205.265 297.746 204.425 299.096 203.915C299.216 203.855 299.291 203.795 299.321 203.735C299.351 203.645 299.201 203.57 298.871 203.51C297.521 203.21 296.351 202.73 295.361 202.07C294.401 201.41 293.666 200.585 293.156 199.595C292.646 198.575 292.391 197.435 292.391 196.175C292.391 194.465 292.826 193.04 293.696 191.9C294.596 190.73 295.886 189.86 297.566 189.29C299.246 188.72 301.256 188.435 303.596 188.435C304.646 188.435 305.486 188.465 306.116 188.525C306.776 188.555 307.376 188.6 307.916 188.66C308.456 188.72 309.071 188.75 309.761 188.75C310.361 188.75 311.021 188.735 311.741 188.705C312.491 188.645 313.241 188.6 313.991 188.57C314.771 188.54 315.506 188.525 316.196 188.525C316.406 188.525 316.601 188.585 316.781 188.705C316.991 188.825 317.096 188.99 317.096 189.2C317.096 189.68 316.766 189.995 316.106 190.145C314.936 190.415 314.141 190.76 313.721 191.18C313.301 191.57 313.091 192.245 313.091 193.205V213.635C313.091 214.595 313.286 215.27 313.676 215.66C314.066 216.02 314.831 216.32 315.971 216.56C316.751 216.71 317.141 217.025 317.141 217.505C317.141 217.715 317.006 217.895 316.736 218.045C316.466 218.195 316.181 218.27 315.881 218.27C314.891 218.27 314.051 218.225 313.361 218.135C312.671 218.075 312.056 218.015 311.516 217.955C310.976 217.895 310.391 217.865 309.761 217.865C309.161 217.865 308.546 217.895 307.916 217.955C307.316 217.985 306.656 218.03 305.936 218.09C305.216 218.15 304.391 218.18 303.461 218.18C303.131 218.18 302.831 218.12 302.561 218C302.321 217.85 302.201 217.67 302.201 217.46C302.201 217.19 302.321 216.995 302.561 216.875C302.801 216.755 303.071 216.65 303.371 216.56C304.151 216.32 304.721 216.095 305.081 215.885C305.471 215.645 305.726 215.345 305.846 214.985C305.996 214.625 306.086 214.16 306.116 213.59L306.206 204.815C306.206 204.485 306.146 204.275 306.026 204.185C305.906 204.095 305.696 204.05 305.396 204.05C305.216 204.05 305.006 204.11 304.766 204.23C304.556 204.35 304.331 204.5 304.091 204.68C303.191 205.49 302.336 206.63 301.526 208.1C300.746 209.54 299.906 211.025 299.006 212.555C298.406 213.665 297.686 214.685 296.846 215.615C296.006 216.545 295.046 217.295 293.966 217.865C292.916 218.405 291.731 218.675 290.411 218.675ZM304.271 202.52C304.871 202.52 305.336 202.4 305.666 202.16C305.996 201.89 306.161 201.44 306.161 200.81V192.755C306.161 191.945 305.966 191.36 305.576 191C305.216 190.61 304.616 190.415 303.776 190.415C302.846 190.415 302.021 190.64 301.301 191.09C300.611 191.54 300.071 192.215 299.681 193.115C299.321 194.015 299.141 195.17 299.141 196.58C299.141 198.44 299.561 199.895 300.401 200.945C301.271 201.995 302.561 202.52 304.271 202.52Z" fill="white"/>
<path d="M43.755 277.135C43.545 277.135 43.335 277.09 43.125 277C42.945 276.88 42.855 276.715 42.855 276.505C42.855 276.025 43.17 275.71 43.8 275.56C44.85 275.32 45.585 275.02 46.005 274.66C46.455 274.27 46.68 273.595 46.68 272.635V252.205C46.68 251.245 46.485 250.57 46.095 250.18C45.705 249.76 44.97 249.415 43.89 249.145C43.26 248.995 42.945 248.68 42.945 248.2C42.945 247.99 43.035 247.825 43.215 247.705C43.425 247.585 43.635 247.525 43.845 247.525C44.535 247.525 45.24 247.54 45.96 247.57C46.68 247.6 47.385 247.645 48.075 247.705C48.765 247.735 49.41 247.75 50.01 247.75C51.75 247.75 53.415 247.75 55.005 247.75C56.625 247.75 58.26 247.75 59.91 247.75C61.5 247.75 63.075 247.75 64.635 247.75C66.225 247.75 67.86 247.75 69.54 247.75C70.14 247.75 70.785 247.735 71.475 247.705C72.165 247.645 72.87 247.6 73.59 247.57C74.31 247.54 75.015 247.525 75.705 247.525C75.945 247.525 76.155 247.585 76.335 247.705C76.515 247.825 76.605 247.99 76.605 248.2C76.605 248.68 76.29 248.995 75.66 249.145C74.58 249.415 73.845 249.76 73.455 250.18C73.065 250.57 72.87 251.245 72.87 252.205V272.635C72.87 273.595 73.08 274.27 73.5 274.66C73.95 275.02 74.685 275.32 75.705 275.56C76.365 275.71 76.695 276.025 76.695 276.505C76.695 276.715 76.59 276.88 76.38 277C76.2 277.09 76.005 277.135 75.795 277.135C75.165 277.135 74.475 277.105 73.725 277.045C73.005 277.015 72.27 276.985 71.52 276.955C70.8 276.925 70.14 276.91 69.54 276.91C68.94 276.91 68.235 276.925 67.425 276.955C66.615 276.985 65.805 277.015 64.995 277.045C64.185 277.105 63.45 277.135 62.79 277.135C62.52 277.135 62.31 277.075 62.16 276.955C62.01 276.835 61.935 276.67 61.935 276.46C61.935 276.19 62.01 275.995 62.16 275.875C62.34 275.755 62.595 275.65 62.925 275.56C64.095 275.26 64.875 274.9 65.265 274.48C65.685 274.06 65.91 273.43 65.94 272.59C66.06 269.02 66.135 265.405 66.165 261.745C66.195 258.085 66.12 254.47 65.94 250.9C65.94 250.69 65.895 250.54 65.805 250.45C65.715 250.33 65.565 250.255 65.355 250.225C64.695 250.165 64.05 250.12 63.42 250.09C62.82 250.06 62.22 250.045 61.62 250.045C61.02 250.015 60.405 250 59.775 250C58.875 250 57.96 250.03 57.03 250.09C56.13 250.12 55.2 250.165 54.24 250.225C53.85 250.255 53.64 250.495 53.61 250.945C53.28 254.455 53.145 258.055 53.205 261.745C53.265 265.405 53.4 269.02 53.61 272.59C53.64 273.43 53.85 274.06 54.24 274.48C54.66 274.9 55.455 275.26 56.625 275.56C56.925 275.65 57.165 275.755 57.345 275.875C57.525 275.995 57.615 276.19 57.615 276.46C57.615 276.67 57.54 276.835 57.39 276.955C57.24 277.075 57.03 277.135 56.76 277.135C56.1 277.135 55.365 277.105 54.555 277.045C53.745 277.015 52.95 276.985 52.17 276.955C51.42 276.925 50.73 276.91 50.1 276.91C49.47 276.91 48.78 276.925 48.03 276.955C47.28 276.985 46.53 277.015 45.78 277.045C45.03 277.105 44.355 277.135 43.755 277.135ZM78.5418 277.225C78.2118 277.225 77.9268 277.165 77.6868 277.045C77.4768 276.955 77.3718 276.775 77.3718 276.505C77.3718 276.205 77.4618 275.995 77.6418 275.875C77.8518 275.725 78.1218 275.605 78.4518 275.515C79.3218 275.275 80.0718 274.9 80.7018 274.39C81.3618 273.88 81.8568 273.25 82.1868 272.5C82.9368 270.82 83.6418 269.17 84.3018 267.55C84.9618 265.9 85.6068 264.28 86.2368 262.69C86.8668 261.07 87.4968 259.435 88.1268 257.785C88.7568 256.105 89.3868 254.41 90.0168 252.7C90.4668 251.47 90.7518 250.585 90.8718 250.045C90.9918 249.475 91.0818 249.145 91.1418 249.055C91.6818 248.905 92.1918 248.77 92.6718 248.65C93.1518 248.53 93.6618 248.365 94.2018 248.155C94.7418 247.945 95.1918 247.675 95.5518 247.345C95.9418 247.015 96.2268 246.76 96.4068 246.58C96.5268 246.49 96.6468 246.445 96.7668 246.445C96.8868 246.415 97.0068 246.505 97.1268 246.715C97.2168 246.895 97.2918 247.09 97.3518 247.3C97.4418 247.48 97.5168 247.69 97.5768 247.93C98.2068 249.94 98.8518 251.995 99.5118 254.095C100.172 256.165 100.832 258.235 101.492 260.305C102.182 262.375 102.857 264.43 103.517 266.47C104.177 268.48 104.822 270.445 105.452 272.365C105.632 272.965 105.902 273.475 106.262 273.895C106.652 274.315 107.087 274.645 107.567 274.885C108.047 275.125 108.587 275.335 109.187 275.515C109.517 275.605 109.772 275.725 109.952 275.875C110.162 275.995 110.267 276.19 110.267 276.46C110.267 276.67 110.177 276.835 109.997 276.955C109.817 277.075 109.607 277.135 109.367 277.135C108.767 277.135 108.017 277.105 107.117 277.045C106.247 277.015 105.362 276.985 104.462 276.955C103.562 276.925 102.767 276.91 102.077 276.91C101.507 276.91 100.802 276.925 99.9618 276.955C99.1518 276.985 98.3268 277.015 97.4868 277.045C96.6468 277.075 95.9268 277.09 95.3268 277.09C95.0568 277.09 94.8168 277.045 94.6068 276.955C94.4268 276.835 94.3368 276.67 94.3368 276.46C94.3368 276.19 94.4418 275.98 94.6518 275.83C94.8618 275.68 95.1168 275.575 95.4168 275.515C96.5268 275.275 97.3368 274.96 97.8468 274.57C98.3568 274.18 98.5218 273.595 98.3418 272.815C98.2218 272.245 98.0718 271.645 97.8918 271.015C97.7118 270.385 97.5318 269.755 97.3518 269.125C97.2018 268.465 97.0368 267.835 96.8568 267.235C96.7968 266.995 96.7218 266.815 96.6318 266.695C96.5418 266.575 96.3618 266.515 96.0918 266.515H88.1268C87.9168 266.515 87.7518 266.575 87.6318 266.695C87.5118 266.815 87.4218 267.01 87.3618 267.28C87.2418 267.7 87.1068 268.12 86.9568 268.54C86.8068 268.96 86.6568 269.38 86.5068 269.8C86.3868 270.22 86.2668 270.64 86.1468 271.06C86.0268 271.48 85.9068 271.885 85.7868 272.275C85.5768 273.175 85.6668 273.865 86.0568 274.345C86.4468 274.825 87.2868 275.215 88.5768 275.515C89.2968 275.665 89.6568 275.98 89.6568 276.46C89.6568 276.67 89.5668 276.835 89.3868 276.955C89.2368 277.045 88.9818 277.09 88.6218 277.09C87.7518 277.09 86.9418 277.06 86.1918 277C85.4418 276.97 84.6168 276.955 83.7168 276.955C82.8168 276.955 81.9618 277 81.1518 277.09C80.3418 277.18 79.4718 277.225 78.5418 277.225ZM89.3868 264.085H95.2368C95.6868 264.085 95.9118 263.98 95.9118 263.77C95.9118 263.68 95.8968 263.605 95.8668 263.545C95.8668 263.485 95.8518 263.41 95.8218 263.32L92.8068 253.15C92.7168 252.82 92.6268 252.655 92.5368 252.655C92.4768 252.655 92.3718 252.82 92.2218 253.15L88.6668 263.32C88.6068 263.44 88.5768 263.56 88.5768 263.68C88.5768 263.83 88.6518 263.935 88.8018 263.995C88.9818 264.055 89.1768 264.085 89.3868 264.085ZM127.154 277.63C124.814 277.63 122.624 277.285 120.584 276.595C118.544 275.875 116.744 274.87 115.184 273.58C113.624 272.26 112.409 270.685 111.539 268.855C110.669 267.025 110.234 265 110.234 262.78C110.234 260.71 110.639 258.745 111.449 256.885C112.289 254.995 113.504 253.33 115.094 251.89C116.684 250.42 118.589 249.265 120.809 248.425C123.059 247.555 125.594 247.12 128.414 247.12C129.374 247.12 130.334 247.195 131.294 247.345C132.284 247.465 133.229 247.645 134.129 247.885C135.059 248.125 135.899 248.38 136.649 248.65C136.919 248.77 137.144 248.935 137.324 249.145C137.534 249.325 137.654 249.595 137.684 249.955C137.804 250.945 137.894 251.905 137.954 252.835C138.014 253.765 138.044 254.605 138.044 255.355C138.044 255.685 137.924 255.91 137.684 256.03C137.444 256.15 137.174 256.165 136.874 256.075C136.604 255.955 136.409 255.715 136.289 255.355C136.079 254.665 135.824 253.975 135.524 253.285C135.254 252.595 134.834 251.995 134.264 251.485C133.664 250.885 132.824 250.39 131.744 250C130.694 249.61 129.419 249.415 127.919 249.415C126.389 249.415 124.994 249.745 123.734 250.405C122.504 251.065 121.439 251.965 120.539 253.105C119.669 254.245 118.994 255.535 118.514 256.975C118.034 258.415 117.794 259.915 117.794 261.475C117.794 263.455 118.004 265.3 118.424 267.01C118.844 268.69 119.489 270.145 120.359 271.375C121.229 272.605 122.294 273.565 123.554 274.255C124.814 274.945 126.299 275.29 128.009 275.29C130.229 275.29 132.029 274.825 133.409 273.895C134.789 272.935 135.944 271.48 136.874 269.53C137.114 268.99 137.444 268.735 137.864 268.765C138.314 268.795 138.539 269.05 138.539 269.53C138.539 269.92 138.494 270.4 138.404 270.97C138.344 271.51 138.239 272.095 138.089 272.725C137.939 273.355 137.759 274 137.549 274.66C137.429 275.02 137.264 275.305 137.054 275.515C136.874 275.695 136.634 275.86 136.334 276.01C135.194 276.49 133.844 276.88 132.284 277.18C130.724 277.48 129.014 277.63 127.154 277.63ZM150.103 277.135C149.893 277.135 149.668 277.09 149.428 277C149.188 276.88 149.068 276.715 149.068 276.505C149.068 276.235 149.173 276.025 149.383 275.875C149.593 275.725 149.848 275.62 150.148 275.56C151.288 275.32 152.113 275.005 152.623 274.615C153.163 274.225 153.433 273.55 153.433 272.59V254.005C153.433 252.835 153.403 251.98 153.343 251.44C153.283 250.87 153.193 250.495 153.073 250.315C152.983 250.105 152.863 249.97 152.713 249.91C152.443 249.76 152.083 249.685 151.633 249.685C151.213 249.655 150.868 249.64 150.598 249.64H149.608C148.648 249.64 147.733 249.88 146.863 250.36C146.023 250.81 145.348 251.38 144.838 252.07C144.688 252.28 144.463 252.58 144.163 252.97C143.893 253.33 143.593 253.66 143.263 253.96C142.963 254.23 142.663 254.365 142.363 254.365C142.123 254.365 141.958 254.29 141.868 254.14C141.778 253.96 141.733 253.765 141.733 253.555C141.733 253.195 141.823 252.82 142.003 252.43C142.573 251.29 142.993 250.315 143.263 249.505C143.533 248.695 143.713 247.765 143.803 246.715C143.863 246.265 143.998 245.965 144.208 245.815C144.418 245.635 144.658 245.545 144.928 245.545C145.138 245.545 145.363 245.74 145.603 246.13C145.843 246.52 146.098 246.835 146.368 247.075C146.668 247.315 147.163 247.495 147.853 247.615C148.573 247.735 149.158 247.795 149.608 247.795H166.528C167.278 247.795 167.908 247.72 168.418 247.57C168.958 247.42 169.363 247.27 169.633 247.12C170.113 246.85 170.488 246.55 170.758 246.22C171.058 245.89 171.403 245.725 171.793 245.725C171.973 245.725 172.093 245.8 172.153 245.95C172.243 246.07 172.288 246.25 172.288 246.49C172.288 246.61 172.273 246.76 172.243 246.94C172.243 247.12 172.228 247.285 172.198 247.435C172.048 248.005 171.898 248.56 171.748 249.1C171.598 249.61 171.478 250.105 171.388 250.585C171.298 251.065 171.253 251.56 171.253 252.07V252.97C171.253 253.45 171.193 253.84 171.073 254.14C170.983 254.44 170.788 254.59 170.488 254.59C170.218 254.59 169.993 254.455 169.813 254.185C169.633 253.885 169.438 253.42 169.228 252.79C168.898 251.71 168.403 250.915 167.743 250.405C167.113 249.895 166.138 249.64 164.818 249.64H162.478C161.968 249.64 161.548 249.76 161.218 250C160.918 250.21 160.693 250.66 160.543 251.35C160.393 252.01 160.318 253.03 160.318 254.41V272.545C160.318 273.445 160.558 274.105 161.038 274.525C161.548 274.915 162.388 275.26 163.558 275.56C163.858 275.65 164.113 275.755 164.323 275.875C164.533 275.995 164.638 276.19 164.638 276.46C164.638 276.67 164.548 276.835 164.368 276.955C164.188 277.075 163.963 277.135 163.693 277.135C163.033 277.135 162.283 277.105 161.443 277.045C160.633 277.015 159.808 276.985 158.968 276.955C158.158 276.925 157.453 276.91 156.853 276.91C156.223 276.91 155.503 276.925 154.693 276.955C153.913 276.985 153.118 277.015 152.308 277.045C151.528 277.105 150.793 277.135 150.103 277.135ZM173.877 277.135C173.667 277.135 173.457 277.09 173.247 277C173.067 276.88 172.977 276.715 172.977 276.505C172.977 276.025 173.292 275.71 173.922 275.56C175.062 275.32 175.827 275.02 176.217 274.66C176.637 274.27 176.847 273.595 176.847 272.635V252.205C176.847 251.215 176.667 250.525 176.307 250.135C175.947 249.745 175.182 249.415 174.012 249.145C173.352 248.995 173.022 248.68 173.022 248.2C173.022 247.99 173.112 247.825 173.292 247.705C173.502 247.585 173.712 247.525 173.922 247.525C174.612 247.525 175.332 247.54 176.082 247.57C176.862 247.6 177.612 247.645 178.332 247.705C179.052 247.735 179.712 247.75 180.312 247.75C180.912 247.75 181.587 247.735 182.337 247.705C183.117 247.675 183.897 247.645 184.677 247.615C185.487 247.585 186.222 247.57 186.882 247.57C187.152 247.57 187.347 247.63 187.467 247.75C187.617 247.84 187.692 247.99 187.692 248.2C187.692 248.5 187.602 248.71 187.422 248.83C187.272 248.95 187.047 249.055 186.747 249.145C185.517 249.475 184.707 249.85 184.317 250.27C183.957 250.69 183.777 251.35 183.777 252.25V267.505C183.777 267.925 183.822 268.15 183.912 268.18C184.002 268.21 184.182 268.09 184.452 267.82L197.457 253.51C197.757 253.21 197.907 252.88 197.907 252.52V252.07C197.877 251.17 197.652 250.525 197.232 250.135C196.842 249.745 196.077 249.415 194.937 249.145C194.277 248.995 193.947 248.68 193.947 248.2C193.947 247.99 194.037 247.825 194.217 247.705C194.427 247.585 194.637 247.525 194.847 247.525C195.537 247.525 196.257 247.54 197.007 247.57C197.787 247.6 198.552 247.645 199.302 247.705C200.052 247.735 200.727 247.75 201.327 247.75C201.927 247.75 202.587 247.735 203.307 247.705C204.057 247.675 204.822 247.645 205.602 247.615C206.412 247.585 207.147 247.57 207.807 247.57C208.077 247.57 208.272 247.63 208.392 247.75C208.542 247.84 208.617 247.99 208.617 248.2C208.617 248.5 208.527 248.71 208.347 248.83C208.197 248.95 207.972 249.055 207.672 249.145C206.442 249.475 205.662 249.85 205.332 250.27C205.002 250.69 204.837 251.35 204.837 252.25V272.59C204.837 273.46 205.017 274.105 205.377 274.525C205.737 274.915 206.502 275.26 207.672 275.56C208.002 275.65 208.242 275.755 208.392 275.875C208.572 275.995 208.662 276.19 208.662 276.46C208.662 276.67 208.587 276.835 208.437 276.955C208.287 277.075 208.077 277.135 207.807 277.135C207.147 277.135 206.412 277.105 205.602 277.045C204.822 277.015 204.042 276.985 203.262 276.955C202.512 276.925 201.837 276.91 201.237 276.91C200.637 276.91 199.977 276.925 199.257 276.955C198.537 276.985 197.787 277.015 197.007 277.045C196.257 277.105 195.537 277.135 194.847 277.135C194.637 277.135 194.427 277.09 194.217 277C194.037 276.88 193.947 276.715 193.947 276.505C193.947 276.025 194.262 275.71 194.892 275.56C196.002 275.32 196.782 275.02 197.232 274.66C197.682 274.3 197.907 273.655 197.907 272.725V257.2C197.907 256.81 197.772 256.735 197.502 256.975L184.362 271.465C184.152 271.675 184.002 271.87 183.912 272.05C183.822 272.2 183.777 272.41 183.777 272.68C183.777 273.55 184.002 274.18 184.452 274.57C184.902 274.93 185.697 275.26 186.837 275.56C187.137 275.65 187.362 275.755 187.512 275.875C187.692 275.995 187.782 276.19 187.782 276.46C187.782 276.67 187.707 276.835 187.557 276.955C187.437 277.075 187.242 277.135 186.972 277.135C186.312 277.135 185.577 277.105 184.767 277.045C183.957 277.015 183.162 276.985 182.382 276.955C181.602 276.925 180.912 276.91 180.312 276.91C179.712 276.91 179.037 276.925 178.287 276.955C177.567 276.985 176.817 277.015 176.037 277.045C175.287 277.105 174.567 277.135 173.877 277.135ZM213.709 277.765C212.449 277.765 211.504 277.45 210.874 276.82C210.244 276.19 209.929 275.455 209.929 274.615C209.929 273.955 210.049 273.385 210.289 272.905C210.529 272.425 210.904 272.185 211.414 272.185C212.284 272.395 213.064 272.545 213.754 272.635C214.474 272.725 215.104 272.77 215.644 272.77C216.394 272.77 217.084 272.425 217.714 271.735C218.344 271.015 218.884 269.86 219.334 268.27C219.814 266.68 220.189 264.565 220.459 261.925C220.729 259.285 220.864 256.03 220.864 252.16C220.864 251.26 220.564 250.615 219.964 250.225C219.364 249.835 218.359 249.475 216.949 249.145C216.289 248.995 215.959 248.68 215.959 248.2C215.959 247.99 216.049 247.825 216.229 247.705C216.439 247.585 216.649 247.525 216.859 247.525C217.459 247.525 218.164 247.54 218.974 247.57C219.784 247.6 220.579 247.645 221.359 247.705C222.169 247.735 222.874 247.75 223.474 247.75C224.104 247.75 224.599 247.75 224.959 247.75C225.319 247.75 225.664 247.75 225.994 247.75C226.324 247.75 226.774 247.75 227.344 247.75C227.914 247.75 228.739 247.75 229.819 247.75C230.929 247.75 232.429 247.75 234.319 247.75C234.919 247.75 235.594 247.735 236.344 247.705C237.124 247.675 237.904 247.645 238.684 247.615C239.494 247.585 240.229 247.57 240.889 247.57C241.159 247.57 241.369 247.63 241.519 247.75C241.669 247.84 241.744 247.99 241.744 248.2C241.744 248.5 241.654 248.71 241.474 248.83C241.324 248.95 241.084 249.055 240.754 249.145C239.554 249.475 238.759 249.85 238.369 250.27C237.979 250.66 237.784 251.32 237.784 252.25V272.59C237.784 273.46 237.994 274.105 238.414 274.525C238.864 274.915 239.674 275.26 240.844 275.56C241.144 275.65 241.369 275.755 241.519 275.875C241.699 275.995 241.789 276.19 241.789 276.46C241.789 276.67 241.714 276.835 241.564 276.955C241.444 277.075 241.249 277.135 240.979 277.135C240.319 277.135 239.584 277.105 238.774 277.045C237.964 277.015 237.169 276.985 236.389 276.955C235.609 276.925 234.919 276.91 234.319 276.91C233.689 276.91 232.999 276.925 232.249 276.955C231.499 276.985 230.719 277.015 229.909 277.045C229.129 277.105 228.394 277.135 227.704 277.135C227.494 277.135 227.299 277.09 227.119 277C226.939 276.88 226.849 276.715 226.849 276.505C226.849 276.025 227.164 275.71 227.794 275.56C228.934 275.32 229.729 275.005 230.179 274.615C230.629 274.225 230.854 273.565 230.854 272.635V253.105C230.854 252.175 230.674 251.455 230.314 250.945C229.984 250.435 229.264 250.18 228.154 250.18H225.814C224.944 250.18 224.344 250.375 224.014 250.765C223.684 251.125 223.519 251.65 223.519 252.34C223.519 256.63 223.294 260.26 222.844 263.23C222.394 266.2 221.809 268.645 221.089 270.565C220.369 272.485 219.574 273.97 218.704 275.02C217.834 276.04 216.949 276.745 216.049 277.135C215.179 277.555 214.399 277.765 213.709 277.765ZM243.688 277.225C243.358 277.225 243.073 277.165 242.833 277.045C242.623 276.955 242.518 276.775 242.518 276.505C242.518 276.205 242.608 275.995 242.788 275.875C242.998 275.725 243.268 275.605 243.598 275.515C244.468 275.275 245.218 274.9 245.848 274.39C246.508 273.88 247.003 273.25 247.333 272.5C248.083 270.82 248.788 269.17 249.448 267.55C250.108 265.9 250.753 264.28 251.383 262.69C252.013 261.07 252.643 259.435 253.273 257.785C253.903 256.105 254.533 254.41 255.163 252.7C255.613 251.47 255.898 250.585 256.018 250.045C256.138 249.475 256.228 249.145 256.288 249.055C256.828 248.905 257.338 248.77 257.818 248.65C258.298 248.53 258.808 248.365 259.348 248.155C259.888 247.945 260.338 247.675 260.698 247.345C261.088 247.015 261.373 246.76 261.553 246.58C261.673 246.49 261.793 246.445 261.913 246.445C262.033 246.415 262.153 246.505 262.273 246.715C262.363 246.895 262.438 247.09 262.498 247.3C262.588 247.48 262.663 247.69 262.723 247.93C263.353 249.94 263.998 251.995 264.658 254.095C265.318 256.165 265.978 258.235 266.638 260.305C267.328 262.375 268.003 264.43 268.663 266.47C269.323 268.48 269.968 270.445 270.598 272.365C270.778 272.965 271.048 273.475 271.408 273.895C271.798 274.315 272.233 274.645 272.713 274.885C273.193 275.125 273.733 275.335 274.333 275.515C274.663 275.605 274.918 275.725 275.098 275.875C275.308 275.995 275.413 276.19 275.413 276.46C275.413 276.67 275.323 276.835 275.143 276.955C274.963 277.075 274.753 277.135 274.513 277.135C273.913 277.135 273.163 277.105 272.263 277.045C271.393 277.015 270.508 276.985 269.608 276.955C268.708 276.925 267.913 276.91 267.223 276.91C266.653 276.91 265.948 276.925 265.108 276.955C264.298 276.985 263.473 277.015 262.633 277.045C261.793 277.075 261.073 277.09 260.473 277.09C260.203 277.09 259.963 277.045 259.753 276.955C259.573 276.835 259.483 276.67 259.483 276.46C259.483 276.19 259.588 275.98 259.798 275.83C260.008 275.68 260.263 275.575 260.563 275.515C261.673 275.275 262.483 274.96 262.993 274.57C263.503 274.18 263.668 273.595 263.488 272.815C263.368 272.245 263.218 271.645 263.038 271.015C262.858 270.385 262.678 269.755 262.498 269.125C262.348 268.465 262.183 267.835 262.003 267.235C261.943 266.995 261.868 266.815 261.778 266.695C261.688 266.575 261.508 266.515 261.238 266.515H253.273C253.063 266.515 252.898 266.575 252.778 266.695C252.658 266.815 252.568 267.01 252.508 267.28C252.388 267.7 252.253 268.12 252.103 268.54C251.953 268.96 251.803 269.38 251.653 269.8C251.533 270.22 251.413 270.64 251.293 271.06C251.173 271.48 251.053 271.885 250.933 272.275C250.723 273.175 250.813 273.865 251.203 274.345C251.593 274.825 252.433 275.215 253.723 275.515C254.443 275.665 254.803 275.98 254.803 276.46C254.803 276.67 254.713 276.835 254.533 276.955C254.383 277.045 254.128 277.09 253.768 277.09C252.898 277.09 252.088 277.06 251.338 277C250.588 276.97 249.763 276.955 248.863 276.955C247.963 276.955 247.108 277 246.298 277.09C245.488 277.18 244.618 277.225 243.688 277.225ZM254.533 264.085H260.383C260.833 264.085 261.058 263.98 261.058 263.77C261.058 263.68 261.043 263.605 261.013 263.545C261.013 263.485 260.998 263.41 260.968 263.32L257.953 253.15C257.863 252.82 257.773 252.655 257.683 252.655C257.623 252.655 257.518 252.82 257.368 253.15L253.813 263.32C253.753 263.44 253.723 263.56 253.723 263.68C253.723 263.83 253.798 263.935 253.948 263.995C254.128 264.055 254.323 264.085 254.533 264.085Z" fill="white"/>
</svg>
